<svg id="组_583" data-name="组 583" xmlns="http://www.w3.org/2000/svg" width="12" height="12" viewBox="0 0 12 12">
  <path id="路径_136" data-name="路径 136" d="M-38,79.89a6,6,0,0,1,6,6,6,6,0,0,1-6,6,6,6,0,0,1-6-6,6,6,0,0,1,6-6Zm0,.9a5.1,5.1,0,0,0-5.1,5.1,5.1,5.1,0,0,0,5.1,5.1,5.1,5.1,0,0,0,5.1-5.1,5.1,5.1,0,0,0-5.1-5.1Zm3.167,2.835a.462.462,0,0,1,0,.649l-3.834,3.881a.454.454,0,0,1-.322.135.454.454,0,0,1-.322-.135l-1.854-1.882a.462.462,0,0,1,0-.65.453.453,0,0,1,.322-.135.453.453,0,0,1,.322.135l1.318,1.34a.3.3,0,0,0,.424,0l0,0,3.3-3.34a.454.454,0,0,1,.323-.135.454.454,0,0,1,.323.135Zm0,0" transform="translate(44 -79.89)" fill="#fff"/>
</svg>
