<svg xmlns="http://www.w3.org/2000/svg" width="19" height="22" viewBox="0 0 19 22">
  <defs>
    <style>
      .cls-1 {
        fill: #999;
        fill-rule: evenodd;
      }
    </style>
  </defs>
  <path id="椭圆_895" data-name="椭圆 895" class="cls-1" d="M3056.52,8392.22a16.74,16.74,0,0,1-8.78-3.06l-0.24-.16-0.24.16a16.743,16.743,0,0,1-8.79,3.06H3038v7.31a11.905,11.905,0,0,0,9.42,11.47h0.16a11.905,11.905,0,0,0,9.42-11.47v-7.31h-0.48Zm-0.96,7.38a10.1,10.1,0,0,1-7.99,9.73h-0.14a10.1,10.1,0,0,1-7.99-9.73v-6.2h0.4a14.153,14.153,0,0,0,7.46-2.6l0.2-.13,0.2,0.13a14.153,14.153,0,0,0,7.46,2.6h0.4v6.2Zm-2.6-2.19-5.7,6.05a1.088,1.088,0,0,1-.71.47,1.106,1.106,0,0,1-.71-0.47l-3.8-3.93a0.9,0.9,0,0,1-.4-0.63,0.713,0.713,0,0,1,.71-0.71,0.889,0.889,0,0,1,.64.39l3.56,3.7h0.08l5.46-5.74a1.206,1.206,0,0,1,.8-0.52,0.559,0.559,0,0,1,.53.84,3.334,3.334,0,0,1-.46.55h0Zm0,0" transform="translate(-3038 -8389)"/>
</svg>
