<?xml version="1.0" encoding="utf-8"?>
<!-- Generator: Adobe Illustrator 23.0.1, SVG Export Plug-In . SVG Version: 6.00 Build 0)  -->
<svg version="1.1" id="图层_1" xmlns="http://www.w3.org/2000/svg" xmlns:xlink="http://www.w3.org/1999/xlink" x="0px" y="0px"
	 viewBox="0 0 30 30" style="enable-background:new 0 0 30 30;" xml:space="preserve">
<style type="text/css">
	.st0{opacity:0.3;fill-rule:evenodd;clip-rule:evenodd;enable-background:new    ;}
	.st1{fill-rule:evenodd;clip-rule:evenodd;fill:#FFFFFF;}
</style>
<path class="st0" d="M15,0c8.3,0,15,6.7,15,15s-6.7,15-15,15S0,23.3,0,15S6.7,0,15,0L15,0z"/>
<path class="st1" d="M21.8,20.8L16,15l5.8-5.8C22,9,22,8.8,22,8.5c0-0.1-0.1-0.3-0.2-0.3c-0.3-0.3-0.7-0.3-1,0L15,14L9.2,8.2
	C9,8,8.8,7.9,8.5,8C8.3,8.1,8.1,8.3,8,8.5C7.9,8.8,8,9,8.2,9.2L14,15l-5.8,5.8C8,20.9,7.9,21.2,8,21.5c0.1,0.2,0.3,0.4,0.5,0.5
	c0.3,0,0.5,0,0.7-0.2L15,16l5.8,5.8c0.3,0.3,0.7,0.3,1,0C22.3,21.3,21.8,20.8,21.8,20.8z"/>
</svg>
