<svg xmlns="http://www.w3.org/2000/svg" width="26" height="26" viewBox="0 0 26 26">
  <defs>
    <style>
      .cls-1 {
        fill: #333;
        fill-rule: evenodd;
      }
    </style>
  </defs>
  <path id="圆角矩形_992_拷贝" data-name="圆角矩形 992 拷贝" class="cls-1" d="M5972.88,2503l10.71,10.71a1.33,1.33,0,1,1-1.88,1.88L5971,2504.88l-10.71,10.71a1.337,1.337,0,0,1-2.25-.59,1.34,1.34,0,0,1,.36-1.29l10.71-10.71-10.71-10.71a1.358,1.358,0,0,1-.36-1.3,1.33,1.33,0,0,1,2.25-.58l10.71,10.7,10.71-10.7a1.33,1.33,0,1,1,1.88,1.88Z" transform="translate(-5958 -2490)"/>
</svg>
