<svg xmlns="http://www.w3.org/2000/svg" width="16" height="16" viewBox="0 0 16 16">
  <g id="组_209" data-name="组 209" transform="translate(61 -62.89)">
    <path id="路径_71" data-name="路径 71" d="M-53,62.89a7.987,7.987,0,0,0-8,8,7.987,7.987,0,0,0,8,8,8.024,8.024,0,0,0,8-8,8.024,8.024,0,0,0-8-8Z" transform="translate(0 0)" fill="#fc3964"/>
    <path id="路径_72" data-name="路径 72" d="M131.441,245.62a1.633,1.633,0,0,1-.768.8,2.2,2.2,0,0,0-.349.241c-.977.641-3.07-.8-4.675-3.287-1.535-2.485-1.954-5.131-.977-5.772l.14-.08.139-.08c.488-.321.768-.481,1.186-.4s.7.4.977.882c.558,1.122.419,1.683-.279,2.164-.07,0-.209.16-.279.16-.14.08.139.882.837,2s1.256,1.764,1.465,1.6a.982.982,0,0,1,.279-.16c.07-.08.209-.08.279-.16.558-.321,1.047-.08,1.744.8a1.151,1.151,0,0,1,.279,1.283Z" transform="translate(-180.843 -170.76)" fill="#fff"/>
    <path id="路径_73" data-name="路径 73" d="M427.961,541.609" transform="translate(-478.047 -468.033)" fill="#111"/>
  </g>
</svg>
