<svg xmlns="http://www.w3.org/2000/svg" width="25.004" height="21" viewBox="0 0 25.004 21">
  <path id="路径_133" data-name="路径 133" d="M-132.617,33.753a5.459,5.459,0,0,1,5.417,5.263v.8c-.469,6.616-6.564,9.723-9.22,10.726a2.581,2.581,0,0,1-1.2.251,3.343,3.343,0,0,1-1.2-.2c-2.6-1.052-8.751-4.11-9.22-10.726v-.8a5.468,5.468,0,0,1,5.417-5.313,5.4,5.4,0,0,1,4.584,2.556.48.48,0,0,0,.417.2.48.48,0,0,0,.417-.2,5.337,5.337,0,0,1,4.584-2.556m0-2a7.489,7.489,0,0,0-5,1.854,7.489,7.489,0,0,0-5-1.854,7.493,7.493,0,0,0-7.5,7.167v1.053c.573,7.718,7.553,11.277,10.522,12.43a5.314,5.314,0,0,0,1.979.351,5.314,5.314,0,0,0,1.979-.351c2.969-1.153,9.949-4.711,10.522-12.43V38.915a7.493,7.493,0,0,0-7.5-7.167Zm0,0" transform="translate(150.12 -31.748)" fill="#d8d8d8"/>
</svg>
