<svg xmlns="http://www.w3.org/2000/svg" width="24" height="28" viewBox="0 0 24 28">
  <g id="组_575" data-name="组 575" transform="translate(3 -63.89)">
    <path id="路径_135" data-name="路径 135" d="M12.387,63.89H5.613a3.4,3.4,0,0,0-3.277,2.429l0,.011H1.075A4.032,4.032,0,0,0-3,70.319V87.9A4.032,4.032,0,0,0,1.075,91.89H16.925A4.032,4.032,0,0,0,21,87.9V70.319a4.032,4.032,0,0,0-4.075-3.989H15.668l0-.011a3.4,3.4,0,0,0-3.277-2.429ZM16.925,68.3a2.04,2.04,0,0,1,2.061,2.018V87.935a2.041,2.041,0,0,1-2.061,1.985H1.041A2.039,2.039,0,0,1-.987,87.9V70.286A2.041,2.041,0,0,1,1.075,68.3H2.351l0,.011a3.4,3.4,0,0,0,3.258,2.367h6.775a3.4,3.4,0,0,0,3.258-2.367l0-.011ZM11.94,80.878H6.06a1,1,0,0,0-1.007.986v.062a1,1,0,0,0,1.007.985h5.88a1,1,0,0,0,1.007-.985v-.062a1,1,0,0,0-1.007-.986Zm0-5.819H6.06a1,1,0,0,0-1.007.985v.062a1,1,0,0,0,1.007.986h5.88a1,1,0,0,0,1.007-.986v-.062a1,1,0,0,0-1.007-.985Zm.447-9.2a1.376,1.376,0,0,1,1.39,1.361v.148a1.376,1.376,0,0,1-1.39,1.338h-6.8a1.375,1.375,0,0,1-1.367-1.361V67.2a1.376,1.376,0,0,1,1.39-1.338Zm0,0" transform="translate(0 0)" fill="#fc3964"/>
  </g>
</svg>
