<?xml version="1.0" encoding="utf-8"?>
<!-- Generator: Adobe Illustrator 23.0.1, SVG Export Plug-In . SVG Version: 6.00 Build 0)  -->
<svg version="1.1" id="图层_1" xmlns="http://www.w3.org/2000/svg" xmlns:xlink="http://www.w3.org/1999/xlink" x="0px" y="0px"
	 viewBox="0 0 49.7 51" style="enable-background:new 0 0 49.7 51;" xml:space="preserve">
<style type="text/css">
	.st0{opacity:0.1;fill-rule:evenodd;clip-rule:evenodd;fill:url(#SVGID_1_);}
	.st1{fill-rule:evenodd;clip-rule:evenodd;fill:#FB285B;}
</style>
<linearGradient id="SVGID_1_" gradientUnits="userSpaceOnUse" x1="27.3316" y1="48.0895" x2="43.7112" y2="26.1783">
	<stop  offset="0" style="stop-color:#FB285B"/>
	<stop  offset="1" style="stop-color:#FB285B;stop-opacity:0"/>
</linearGradient>
<path class="st0" d="M18.3,48.3c1.6,1.5,3.5,2.9,5.7,2.7c8.3-0.5,15-4.8,19-8c5.9-4.6,12-15.8-1-30L23,37L18.3,48.3z"/>
<path class="st1" d="M23.1,0L23.1,0C17.1-0.2,11.2,2.1,6.8,6.3C2.5,10.4,0,16.1,0,22.1c0,4,1.1,8.8,4.7,13.2
	c2.9,3.4,12.9,12.4,12.9,12.4c2.2,2.7,6.2,3.1,8.9,0.9c0.3-0.3,0.6-0.6,0.9-0.9c0,0,10.1-8.8,12.8-12.3c2.2-2.8,4.9-8.5,4.8-13.6
	C44.6,9.9,35,0.3,23.1,0z M22.8,32.2c-5.6,0.1-10.2-4.4-10.3-10c-0.1-5.6,4.4-10.2,10-10.3c5.6,0,10.2,4.5,10.3,10.1
	C32.8,27.6,28.4,32.2,22.8,32.2z"/>
<path class="st1" d="M28.6,22c0.1,3.3-2.6,6-5.8,6.1c-3.3,0.1-6-2.6-6.1-5.8s2.6-6,5.8-6.1c0,0,0.1,0,0.1,0
	C25.9,16.1,28.6,18.7,28.6,22L28.6,22z"/>
</svg>
