<svg xmlns="http://www.w3.org/2000/svg" xmlns:xlink="http://www.w3.org/1999/xlink" width="16" height="15.486" viewBox="0 0 16 15.486">
  <defs>
    <clipPath id="clip-path">
      <rect id="SVGID" width="16" height="15.486" transform="translate(0 0)" fill="#999"/>
    </clipPath>
  </defs>
  <g id="组_412" data-name="组 412" clip-path="url(#clip-path)">
    <path id="路径_110" data-name="路径 110" d="M-45.721,80.551a.716.716,0,0,0-.72.72v7.038a1.4,1.4,0,0,1-1.439,1.352H-58.12a1.4,1.4,0,0,1-1.439-1.352V78.494a1.4,1.4,0,0,1,1.439-1.352h6.455a.716.716,0,0,0,.72-.72.716.716,0,0,0-.72-.72H-58.12A2.834,2.834,0,0,0-61,78.494v9.815A2.84,2.84,0,0,0-58.12,91.1h10.238A2.84,2.84,0,0,0-45,88.309V81.278a.722.722,0,0,0-.72-.727Zm-9.383,5.43a.635.635,0,0,0,1.016-.064l7.951-9.022a.635.635,0,0,0-.064-1.016.635.635,0,0,0-1.016.064l-7.951,9.015a.642.642,0,0,0,.064,1.023Zm0,0" transform="translate(61 -75.637)" fill="#999"/>
  </g>
</svg>
