<?xml version="1.0" encoding="utf-8"?>
<!-- Generator: Adobe Illustrator 23.0.1, SVG Export Plug-In . SVG Version: 6.00 Build 0)  -->
<svg version="1.1" id="图层_1" xmlns="http://www.w3.org/2000/svg" xmlns:xlink="http://www.w3.org/1999/xlink" x="0px" y="0px"
	 viewBox="0 0 40 40" style="enable-background:new 0 0 40 40;" xml:space="preserve">
<style type="text/css">
	.st0{fill-rule:evenodd;clip-rule:evenodd;fill:#FB285B;}
	.st1{fill-rule:evenodd;clip-rule:evenodd;fill:#FFFFFF;}
</style>
<circle class="st0" cx="20" cy="20" r="20"/>
<path class="st1" d="M29.7,13.5l-12,12.3l-6.5-6.6c-0.3-0.3-0.8-0.5-1.3-0.4c-0.5,0.1-0.8,0.5-0.9,0.9c-0.1,0.5,0,1,0.3,1.3l7.4,7.6
	c0.5,0.5,1.3,0.5,1.8,0c0,0,0,0,0,0l12.9-13.2c0.4-0.3,0.5-0.8,0.4-1.3c-0.1-0.5-0.5-0.9-1-1C30.5,12.9,30,13.1,29.7,13.5L29.7,13.5
	L29.7,13.5z"/>
</svg>
