<svg id="组_587" data-name="组 587" xmlns="http://www.w3.org/2000/svg" width="12" height="12" viewBox="0 0 12 12">
  <path id="路径_137" data-name="路径 137" d="M-38,79.89a6,6,0,0,1,6,6,6,6,0,0,1-6,6,6,6,0,0,1-6-6,6,6,0,0,1,6-6Zm0,.9a5.1,5.1,0,0,0-5.1,5.1,5.1,5.1,0,0,0,5.1,5.1,5.1,5.1,0,0,0,5.1-5.1,5.1,5.1,0,0,0-5.1-5.1Zm2.573,2.527a.432.432,0,0,1,.127.306.432.432,0,0,1-.127.306l-1.962,1.962,1.962,1.963a.432.432,0,0,1,0,.611.432.432,0,0,1-.611,0L-38,86.5l-1.963,1.963a.432.432,0,0,1-.611,0,.432.432,0,0,1,0-.611l1.963-1.962-1.963-1.962a.432.432,0,0,1,0-.611.432.432,0,0,1,.611,0L-38,85.279l1.962-1.962a.432.432,0,0,1,.306-.127.432.432,0,0,1,.306.127Zm0,0" transform="translate(44 -79.89)" fill="#c2c2c2"/>
</svg>
