<svg xmlns="http://www.w3.org/2000/svg" width="14.03" height="14" viewBox="0 0 14.03 14">
  <path id="矩形_642" data-name="矩形 642" d="M3395.57,4904.99h-13.14a.445.445,0,1,1,0-.89h3.29v-.54a1.539,1.539,0,0,1,1.51-1.56h3.55a1.532,1.532,0,0,1,1.5,1.56v.54h3.29a.445.445,0,1,1,0,.89Zm-4.15-1.43a.658.658,0,0,0-.64-.67h-3.55a.661.661,0,0,0-.65.67v.54h4.84v-.54Zm-4.25,9.32v-5.08a.516.516,0,1,1,1.03,0v5.08a.525.525,0,0,1-.52.53.517.517,0,0,1-.51-.53Zm2.76,0v-5.08a.516.516,0,1,1,1.03,0v5.08a.525.525,0,0,1-.52.53.517.517,0,0,1-.51-.53Zm-5.51-6.84a.438.438,0,0,1,.43.45v7.86a.711.711,0,0,0,.65.76h7a.71.71,0,0,0,.65-.76v-7.86a.439.439,0,0,1,.43-.45.444.444,0,0,1,.43.45v7.86a1.588,1.588,0,0,1-1.51,1.65h-7a1.58,1.58,0,0,1-1.5-1.65v-7.86a.436.436,0,0,1,.42-.45Z" transform="translate(-3381.985 -4902)" fill="#999" fill-rule="evenodd"/>
</svg>
