<svg xmlns="http://www.w3.org/2000/svg" width="15.202" height="13" viewBox="0 0 15.202 13">
  <path id="路径_105" data-name="路径 105" d="M-103.335,83.281h.55c.085,0,.212-.042.3-.042.042,0,.127-.042.169-.042.085-.042.212-.042.3-.085.042,0,.085-.042.127-.042.127-.042.212-.085.339-.127.042,0,.042-.042.085-.042.127-.042.254-.127.381-.169a4.252,4.252,0,0,0,1.1-.847,2.423,2.423,0,0,0,.3-.339c0-.042.042-.042.042-.085a4.847,4.847,0,0,0,1.059-3.049h-1.143c-.042,0-.042,0-.085-.042v-.085l1.99-2.922c0-.042.042-.042.085-.042s.042,0,.085.042l1.863,2.879v.085c0,.042-.042.042-.085.042h-1.143a6.54,6.54,0,0,1-1.143,3.684.041.041,0,0,1-.042.042,1.839,1.839,0,0,1-.254.3c-.042.042-.042.085-.085.127-.127.127-.254.3-.381.424l-.042.042a7.218,7.218,0,0,1-1.44,1.1.042.042,0,0,0-.042.042,2.266,2.266,0,0,1-.466.212c-.042,0-.085.042-.127.042a4.383,4.383,0,0,1-.423.169c-.085.042-.127.042-.212.085a1.235,1.235,0,0,1-.381.085c-.085,0-.169.042-.254.042-.042,0-.085,0-.085.042a1.051,1.051,0,0,1-.339.042h-.127c-.212,0-.423.042-.635.042a6.236,6.236,0,0,1-3.642-1.186.8.8,0,0,1-.169-1.1.752.752,0,0,1,1.059-.169,5.214,5.214,0,0,0,2.922.847Zm-5.336-8.554a.041.041,0,0,1,.042-.042,2.33,2.33,0,0,1,.3-.381l.042-.042a6.605,6.605,0,0,1,2.371-1.821c.042,0,.042-.042.085-.042.127-.042.3-.127.466-.169.042,0,.127-.042.169-.042a1.236,1.236,0,0,1,.381-.085,1.835,1.835,0,0,0,.212-.042.156.156,0,0,0,.127-.042c.085,0,.212-.042.3-.042a.382.382,0,0,0,.212-.042c.127,0,.3-.042.466-.042h.085a6.464,6.464,0,0,1,3.684,1.186.8.8,0,0,1,.169,1.1.752.752,0,0,1-1.059.169,4.9,4.9,0,0,0-2.837-.889,1.44,1.44,0,0,0-.424.042h-.127c-.127,0-.212.042-.339.042-.042,0-.085.042-.127.042-.127.042-.212.042-.339.085a.148.148,0,0,0-.085.042l-.381.127h-.042a4.577,4.577,0,0,0-1.821,1.4,5.032,5.032,0,0,0-1.1,3.134h1.143c.042,0,.042,0,.085.042V78.5l-1.906,2.879c0,.042-.042.042-.085.042s-.042,0-.085-.042L-111,78.5v-.085c0-.042.042-.042.085-.042h1.143a5.982,5.982,0,0,1,1.1-3.642Zm0,0" transform="translate(111 -71.89)" fill="#fc3964"/>
</svg>
