<svg xmlns="http://www.w3.org/2000/svg" width="12.975" height="13.593" viewBox="0 0 12.975 13.593">
  <g id="组_407" data-name="组 407" transform="translate(-4 -115.89)">
    <path id="路径_107" data-name="路径 107" d="M367.995,190.619a.195.195,0,0,1,0,.276l-.459.458a.195.195,0,0,1-.275,0l-1.629-1.628a.195.195,0,0,1,0-.276l.459-.459a.194.194,0,0,1,.276,0c.813.816.812.816,1.628,1.629Zm0,0" transform="translate(-353.556 -71.423)" fill="#c2c2c2"/>
    <path id="路径_108" data-name="路径 108" d="M48.064,115.89a1.891,1.891,0,0,1,1.434,3.122l-.1.1L42.421,126.1l-3.366.719.687-3.388,6.985-6.985a1.888,1.888,0,0,1,1.338-.554Zm0,1.016a.881.881,0,0,0-.545.189l-.073.067-6.769,6.768-.318,1.568,1.555-.331,6.768-6.768a.874.874,0,0,0-.617-1.491Zm0,0" transform="translate(-34.278 0)" fill="#c2c2c2"/>
    <path id="路径_109" data-name="路径 109" d="M4.568,677.691h11.84a.568.568,0,1,1,0,1.135H4.568a.568.568,0,1,1,0-1.135Zm0,0" transform="translate(0 -549.343)" fill="#c2c2c2"/>
  </g>
</svg>
