<svg xmlns="http://www.w3.org/2000/svg" width="13" height="13" viewBox="0 0 13 13">
  <path id="圆角矩形_1129" data-name="圆角矩形 1129" d="M3475.586,5070.74c-.247.257-.52.12-.766-.129l-2.393-2.45a5.641,5.641,0,0,1-3.754,1.479,5.836,5.836,0,0,1-5.781-4.492,5.9,5.9,0,0,1,3.1-6.669,5.79,5.79,0,0,1,7.118,1.612,5.926,5.926,0,0,1-.022,7.365l2.409,2.467a.55.55,0,0,1,.093.817Zm-6.913-11.786a4.81,4.81,0,0,0-4.486,2.957,4.892,4.892,0,0,0,1,5.313,4.777,4.777,0,0,0,5.25,1.08,4.857,4.857,0,0,0,2.983-4.493,4.808,4.808,0,0,0-4.751-4.857Z" transform="translate(-3462.726 -5057.877)" fill="#b9b9b9" fill-rule="evenodd"/>
</svg>
