<?xml version="1.0" encoding="utf-8"?>
<!-- Generator: Adobe Illustrator 23.0.1, SVG Export Plug-In . SVG Version: 6.00 Build 0)  -->
<svg version="1.1" id="图层_1" xmlns="http://www.w3.org/2000/svg" xmlns:xlink="http://www.w3.org/1999/xlink" x="0px" y="0px"
	 viewBox="0 0 22 22" style="enable-background:new 0 0 22 22;" xml:space="preserve">
<style type="text/css">
	.st0{fill-rule:evenodd;clip-rule:evenodd;fill:#999999;}
</style>
<path class="st0" d="M11,0C4.9,0,0,4.9,0,11s4.9,11,11,11s11-4.9,11-11S17.1,0,11,0z M11,20.3c-5.1,0-9.3-4.2-9.3-9.3
	c0-5.1,4.2-9.3,9.3-9.3c5.1,0,9.3,4.2,9.3,9.3C20.3,16.1,16.1,20.3,11,20.3z"/>
<path class="st0" d="M11.9,6v7.3c0,0.5-0.4,0.8-0.9,0.8c-0.5,0-0.8-0.4-0.8-0.8V6c0-0.5,0.4-0.9,0.8-0.9S11.9,5.5,11.9,6
	C11.9,5.9,11.9,5.9,11.9,6L11.9,6"/>
<path class="st0" d="M10.2,16c0,0.5,0.4,0.9,0.8,0.9s0.9-0.4,0.9-0.8c0,0,0,0,0,0c0-0.5-0.4-0.8-0.9-0.8
	C10.5,15.2,10.2,15.5,10.2,16L10.2,16"/>
</svg>
