<?xml version="1.0" encoding="utf-8"?>
<!-- Generator: Adobe Illustrator 23.0.1, SVG Export Plug-In . SVG Version: 6.00 Build 0)  -->
<svg version="1.1" id="图层_1" xmlns="http://www.w3.org/2000/svg" xmlns:xlink="http://www.w3.org/1999/xlink" x="0px" y="0px"
	 viewBox="0 0 100 100" style="enable-background:new 0 0 100 100;" xml:space="preserve">
<style type="text/css">
	.st0{fill-rule:evenodd;clip-rule:evenodd;fill:#EEEEEE;}
	.st1{fill-rule:evenodd;clip-rule:evenodd;fill:#FFFFFF;}
</style>
<path class="st0" d="M50,0c27.6,0,50,22.4,50,50s-22.4,50-50,50S0,77.6,0,50l0,0C0,22.4,22.4,0,50,0z"/>
<path class="st1" d="M56.5,55.4c-0.3-0.1-2.1-0.9-1-4.5h0c3.3-3.6,5.2-8.3,5.3-13.2C60.8,30,55.8,26,50,26s-10.7,4-10.7,11.7
	c0.1,4.9,2,9.6,5.3,13.2c1.2,3.1-0.9,4.3-1.4,4.5C37.1,57.6,30,61.7,30,65.7v1.5c0,5.5,10.4,6.8,20.1,6.8S70,72.8,70,67.3v-1.5
	C70,61.6,62.9,57.5,56.5,55.4L56.5,55.4L56.5,55.4z"/>
</svg>
