<svg xmlns="http://www.w3.org/2000/svg" width="16" height="16" viewBox="0 0 16 16">
  <g id="组_1196" data-name="组 1196" transform="translate(60 60)">
    <path id="路径_450" data-name="路径 450" d="M-52-44a8,8,0,0,1-8-8,8,8,0,0,1,8-8,8,8,0,0,1,8,8,8,8,0,0,1-8,8Z" transform="translate(0 0)" fill="#c4c4de"/>
    <path id="路径_451" data-name="路径 451" d="M88.157,371.729a6.122,6.122,0,0,1-4.8-2.325,6.114,6.114,0,0,1,9.6,0,6.119,6.119,0,0,1-4.8,2.325Z" transform="translate(-140.157 -418.078)" fill="#f8f8ff"/>
    <path id="路径_452" data-name="路径 452" d="M163.8,59.963a2.677,2.677,0,1,1,2.677-2.677,2.677,2.677,0,0,1-2.677,2.677Z" transform="translate(-215.804 -111.909)" fill="#f8f8ff"/>
  </g>
</svg>
