<?xml version="1.0" encoding="utf-8"?>
<!-- Generator: Adobe Illustrator 23.0.1, SVG Export Plug-In . SVG Version: 6.00 Build 0)  -->
<svg version="1.1" id="图层_1" xmlns="http://www.w3.org/2000/svg" xmlns:xlink="http://www.w3.org/1999/xlink" x="0px" y="0px"
	 viewBox="0 0 15 12" style="enable-background:new 0 0 15 12;" xml:space="preserve">
<style type="text/css">
	.st0{fill:#FC3964;}
</style>
<g id="组_878" transform="translate(-58.5 12.5)">
	<g id="路径_336">
		<path class="st0" d="M69.4-11.5c1.7,0,3,1.3,3.1,3c-0.1,0.9-0.4,1.7-1,2.3c0,0,0,0-0.1,0.1C70-4.2,66-1.6,66-1.6
			c-0.8-0.5-4.2-2.8-5.5-4.6c0,0,0,0-0.1-0.1c-0.6-0.6-0.9-1.5-1-2.3c0.1-1.7,1.4-3,3.1-3h0.1c0.7,0,1.5,0.6,2.5,1.8
			c0.2,0.2,0.5,0.3,0.8,0.3l0,0c0.3,0,0.6-0.1,0.8-0.3C67.8-10.9,68.6-11.5,69.4-11.5L69.4-11.5 M69.4-12.5L69.4-12.5
			c-1.4,0-2.6,1.2-3.4,2.1c-0.8-0.9-2-2.1-3.3-2.1h-0.1c-2.2,0-4,1.8-4.1,4c0.1,1.1,0.5,2.1,1.2,3c1.6,2.1,5.6,4.7,5.7,4.8
			c0.2,0.1,0.3,0.2,0.5,0.2l0,0l0,0c0.2,0,0.4-0.1,0.5-0.2c0.2-0.1,4.2-2.7,5.7-4.8c0.7-0.8,1.2-1.9,1.2-3
			C73.4-10.7,71.6-12.5,69.4-12.5L69.4-12.5z"/>
	</g>
</g>
</svg>
