<svg xmlns="http://www.w3.org/2000/svg" width="22" height="21.97" viewBox="0 0 22 21.97">
  <defs>
    <style>
      .cls-1 {
        fill: #fb285b;
        fill-rule: evenodd;
      }
    </style>
  </defs>
  <path id="圆角矩形_901_拷贝" data-name="圆角矩形 901 拷贝" class="cls-1" d="M3336.7,7895.16a1.57,1.57,0,1,0-2.22-2.22l-5,4.99a3.924,3.924,0,0,0,5.55,5.55l9.44-9.43a3.924,3.924,0,1,0-5.55-5.55l-0.28.28a1.171,1.171,0,0,1-1.66,0,1.183,1.183,0,0,1,0-1.67l0.27-.28a6.279,6.279,0,0,1,8.88,8.88l-9.43,9.44a6.279,6.279,0,0,1-8.88-8.88l5-4.99a3.917,3.917,0,1,1,5.54,5.54l-4.71,4.72a1.2,1.2,0,0,1-1.14.31,1.175,1.175,0,0,1-.83-0.84,1.153,1.153,0,0,1,.3-1.13Zm0,0" transform="translate(-3326 -7885)"/>
</svg>
