<svg xmlns="http://www.w3.org/2000/svg" width="14" height="26" viewBox="0 0 14 26">
  <defs>
    <style>
      .cls-1 {
        fill: #bebebe;
        fill-rule: evenodd;
      }
    </style>
  </defs>
  <path id="椭圆_816_拷贝_2" data-name="椭圆 816 拷贝 2" class="cls-1" d="M3460.63,6593.1a1.292,1.292,0,0,1,.1,1.69l-0.1.11-11.49,11.72a1.232,1.232,0,0,1-1.77,0,1.286,1.286,0,0,1,0-1.8l10.61-10.82-10.61-10.82a1.32,1.32,0,0,1-.33-1.24,1.265,1.265,0,0,1,.89-0.9,1.241,1.241,0,0,1,1.21.33l11.49,11.73h0Zm0,0" transform="translate(-3447 -6581)"/>
</svg>
