<svg id="组_558" data-name="组 558" xmlns="http://www.w3.org/2000/svg" xmlns:xlink="http://www.w3.org/1999/xlink" width="13" height="13" viewBox="0 0 13 13">
  <defs>
    <clipPath id="clip-path">
      <rect id="矩形_183" data-name="矩形 183" width="13" height="13" fill="none"/>
    </clipPath>
  </defs>
  <g id="组_559" data-name="组 559" transform="translate(0 0)">
    <g id="组_558-2" data-name="组 558" clip-path="url(#clip-path)">
      <path id="路径_130" data-name="路径 130" d="M42.071,76.69H36.2a1.687,1.687,0,0,0-1.644,1.485,2.663,2.663,0,1,0,1.138.05.542.542,0,0,1,.508-.4h5.869a.561.561,0,0,1,.536.582V86.3a.561.561,0,0,1-.536.582H39.438v-.926a2.018,2.018,0,0,0-.757-1.577L40.443,80.8a.573.573,0,0,0,.03-.434.559.559,0,0,0-1.036-.074l-1.8,3.67a1.766,1.766,0,0,0-.178-.007H36.432a.57.57,0,0,0,0,1.139h1.024a.864.864,0,0,1,.858.869v1.689a.865.865,0,0,1-.858.869H36.432a.57.57,0,0,0,0,1.139h1.024A1.994,1.994,0,0,0,39.4,88.023h2.668A1.693,1.693,0,0,0,43.733,86.3V78.41a1.7,1.7,0,0,0-1.662-1.719Zm-5.494,4.17a1.566,1.566,0,1,1-1.566-1.586,1.577,1.577,0,0,1,1.566,1.586Zm0,0" transform="translate(-30.738 -76.675)" fill="#fff"/>
      <path id="路径_131" data-name="路径 131" d="M-51.137,464.227h.889a.567.567,0,0,0,.562-.57.567.567,0,0,0-.562-.57h-.889A2,2,0,0,0-53.12,465.1v1.689a2,2,0,0,0,1.983,2.008h.889a.567.567,0,0,0,.562-.57.567.567,0,0,0-.562-.57h-.889a.864.864,0,0,1-.858-.869V465.1a.863.863,0,0,1,.858-.869Zm0,0" transform="translate(53.118 -455.813)" fill="#fff"/>
    </g>
  </g>
</svg>
