<?xml version="1.0" encoding="utf-8"?>
<!-- Generator: Adobe Illustrator 23.0.1, SVG Export Plug-In . SVG Version: 6.00 Build 0)  -->
<svg version="1.1" id="图层_1" xmlns="http://www.w3.org/2000/svg" xmlns:xlink="http://www.w3.org/1999/xlink" x="0px" y="0px"
	 viewBox="0 0 24 24" style="enable-background:new 0 0 24 24;" xml:space="preserve">
<style type="text/css">
	.st0{fill-rule:evenodd;clip-rule:evenodd;fill:#FB285B;}
	.st1{fill-rule:evenodd;clip-rule:evenodd;fill:#FFFFFF;}
</style>
<path class="st0" d="M14,24H0V10C0,4.5,4.5,0,10,0h14v14C24,19.5,19.5,24,14,24z"/>
<path class="st1" d="M17.6,7.3L10.3,15l-3.9-4.1c-0.2-0.2-0.5-0.3-0.8-0.2c-0.3,0.1-0.5,0.3-0.6,0.6C5,11.5,5,11.8,5.2,12l4.5,4.7
	c0.3,0.3,0.8,0.3,1.1,0.1c0,0,0,0,0.1-0.1l7.9-8.3C19,8.3,19.1,7.9,19,7.6c-0.1-0.3-0.3-0.5-0.6-0.6C18.1,6.9,17.8,7.1,17.6,7.3
	L17.6,7.3L17.6,7.3z"/>
</svg>
