<svg xmlns="http://www.w3.org/2000/svg" width="18" height="18" viewBox="0 0 18 18">
  <g id="组_775" data-name="组 775" transform="translate(-299 -836)">
    <g id="路径_317" data-name="路径 317" transform="translate(299 836)" fill="#fff5f8">
      <path d="M 9 17.60000038146973 C 4.25793981552124 17.60000038146973 0.4000000059604645 13.7420597076416 0.4000000059604645 9 C 0.4000000059604645 4.25793981552124 4.25793981552124 0.4000000059604645 9 0.4000000059604645 C 13.7420597076416 0.4000000059604645 17.60000038146973 4.25793981552124 17.60000038146973 9 C 17.60000038146973 13.7420597076416 13.7420597076416 17.60000038146973 9 17.60000038146973 Z" stroke="none"/>
      <path d="M 9 0.7999992370605469 C 4.478500366210938 0.7999992370605469 0.7999992370605469 4.478500366210938 0.7999992370605469 9 C 0.7999992370605469 13.52149963378906 4.478500366210938 17.20000076293945 9 17.20000076293945 C 13.52149963378906 17.20000076293945 17.20000076293945 13.52149963378906 17.20000076293945 9 C 17.20000076293945 4.478500366210938 13.52149963378906 0.7999992370605469 9 0.7999992370605469 M 9 0 C 13.97056007385254 0 18 4.029439926147461 18 9 C 18 13.97056007385254 13.97056007385254 18 9 18 C 4.029439926147461 18 0 13.97056007385254 0 9 C 0 4.029439926147461 4.029439926147461 0 9 0 Z" stroke="none" fill="#ffcbd6"/>
    </g>
    <rect id="矩形_220" data-name="矩形 220" width="2" height="7" rx="1" transform="translate(303 843)" fill="#fc3964"/>
    <rect id="矩形_221" data-name="矩形 221" width="2" height="9" rx="1" transform="translate(307 841)" fill="#fc3964"/>
    <rect id="矩形_222" data-name="矩形 222" width="2" height="5" rx="1" transform="translate(311 845)" fill="#fc3964"/>
  </g>
</svg>
