<?xml version="1.0" encoding="utf-8"?>
<!-- Generator: Adobe Illustrator 23.0.1, SVG Export Plug-In . SVG Version: 6.00 Build 0)  -->
<svg version="1.1" id="图层_1" xmlns="http://www.w3.org/2000/svg" xmlns:xlink="http://www.w3.org/1999/xlink" x="0px" y="0px"
	 viewBox="0 0 125 125" style="enable-background:new 0 0 125 125;" xml:space="preserve">
<style type="text/css">
	.st0{fill-rule:evenodd;clip-rule:evenodd;fill:#EEEEEE;}
	.st1{fill:#FFFFFF;}
</style>
<path class="st0" d="M62,0c34.5,0,62.5,28,62.5,62.5S96.5,125,62,125S-0.5,97-0.5,62.5S27.5,0,62,0L62,0z"/>
<path class="st1" d="M84.1,59.8l-19.1,0L65,41c0-1.6-1.3-2.9-2.9-2.9c-1.6,0-3,1.3-3,2.9l0,18.9l-19.1,0v0c0,0,0,0,0,0
	c-1.6,0-2.9,1.3-2.9,3c0,1.6,1.3,2.9,3,3l19.1,0l0,19.3c0,1.6,1.3,2.9,2.9,2.9c1.6,0,3-1.3,3-2.9l0-19.3l19.1,0c0,0,0,0,0,0
	c1.6,0,2.9-1.3,2.9-3C87,61.1,85.7,59.8,84.1,59.8z"/>
</svg>
