<svg xmlns="http://www.w3.org/2000/svg" width="17" height="16" viewBox="0 0 17 16">
  <path id="路径_444" data-name="路径 444" d="M10.961,4.8a1.356,1.356,0,0,0-1.832,0L1.722,10.762a.691.691,0,0,0-.05.972.68.68,0,0,0,.965.051l.118-.113v7.393A1.371,1.371,0,0,0,4.12,20.442H8.1V16.3a.965.965,0,0,1,.961-.97h1.873a.966.966,0,0,1,.963.969v4.145h4.071a1.372,1.372,0,0,0,1.367-1.377h0v-7.3a.684.684,0,0,0,.987-.028.692.692,0,0,0-.049-.972h0L10.961,4.8Z" transform="translate(-1.496 -4.442)" fill="#dbdbdb"/>
</svg>
