<svg xmlns="http://www.w3.org/2000/svg" width="15.389" height="16" viewBox="0 0 15.389 16">
  <g id="组_547" data-name="组 547" transform="translate(0 -73.455)">
    <path id="路径_118" data-name="路径 118" d="M523.434,334.156" transform="translate(-509.835 -253.938)" fill="#0081ff"/>
    <path id="路径_119" data-name="路径 119" d="M505.984,439.5" transform="translate(-492.832 -356.549)" fill="#0081ff"/>
    <path id="路径_120" data-name="路径 120" d="M331.5,334.156" transform="translate(-322.905 -253.938)" fill="#fff"/>
    <path id="路径_121" data-name="路径 121" d="M58.272,73.455H50.611a2.554,2.554,0,0,0-2.634,2.46v3.606c.957.6,5.675,2.733,5.675,2.733a2.509,2.509,0,0,0,.789.181,2.3,2.3,0,0,0,.789-.181s4.514-1.991,5.676-2.7V75.915A2.554,2.554,0,0,0,58.272,73.455Zm-7.62,1.686H53.3a.671.671,0,1,1,0,1.342H50.652a.671.671,0,1,1,0-1.342ZM55.2,79.213H50.69a.672.672,0,1,1,0-1.342H55.2a.673.673,0,1,1,0,1.342Z" transform="translate(-46.747)" fill="#dbdbdb"/>
    <path id="路径_122" data-name="路径 122" d="M301.932,305.85" transform="translate(-294.1 -226.367)" fill="#fff"/>
    <g id="组_547-2" data-name="组 547" transform="translate(0 80.807)">
      <path id="路径_123" data-name="路径 123" d="M15.115,353a.361.361,0,0,0-.339.019s-5.669,2.634-6.068,2.844a1.863,1.863,0,0,1-2.028,0c-.4-.209-6.066-2.844-6.066-2.844A.358.358,0,0,0,.272,353a1.765,1.765,0,0,0-.272.943v5.876a1.8,1.8,0,0,0,1.81,1.789H13.578a1.8,1.8,0,0,0,1.81-1.789v-5.876A1.765,1.765,0,0,0,15.115,353Z" transform="translate(0 -352.96)" fill="#dbdbdb"/>
    </g>
  </g>
</svg>
