<svg xmlns="http://www.w3.org/2000/svg" width="14.469" height="16" viewBox="0 0 14.469 16">
  <g id="组_180" data-name="组 180" transform="translate(7 375.147)">
    <g id="组_180-2" data-name="组 180" transform="translate(-7 -375.147)">
      <path id="路径_64" data-name="路径 64" d="M-46.59,445.7H-57.185a1.938,1.938,0,0,1-1.935-1.935,5.5,5.5,0,0,1,1.716-4,5.8,5.8,0,0,1,4.126-1.716H-50.5a5.8,5.8,0,0,1,4.126,1.716,5.5,5.5,0,0,1,1.716,3.994A1.938,1.938,0,0,1-46.59,445.7Z" transform="translate(59.12 -429.717)" fill="#dbdbdb"/>
      <path id="路径_65" data-name="路径 65" d="M558.239,814.85" transform="translate(-545.709 -798.869)" fill="#444"/>
      <rect id="矩形_82" data-name="矩形 82" width="14.467" height="16" transform="translate(0.002 0)" fill="none"/>
      <path id="路径_66" data-name="路径 66" d="M108.313,28.37a3.913,3.913,0,1,0,3.913,3.913A3.917,3.917,0,0,0,108.313,28.37Zm1.471,5.354a1.531,1.531,0,0,1-2.935,0c-.064-.219.11-.436.529-.436h2.067A.346.346,0,0,1,109.784,33.724Z" transform="translate(-101.081 -28.36)" fill="#dbdbdb"/>
    </g>
  </g>
</svg>
