<svg xmlns="http://www.w3.org/2000/svg" xmlns:xlink="http://www.w3.org/1999/xlink" width="16.902" height="16" viewBox="0 0 16.902 16">
  <defs>
    <clipPath id="clip-path">
      <rect id="SVGID" width="16.902" height="16" fill="#dbdbdb"/>
    </clipPath>
  </defs>
  <g id="组_1190" data-name="组 1190" transform="translate(31 -105.89)">
    <g id="组_550" data-name="组 550" transform="translate(-31 105.89)">
      <g id="组_549" data-name="组 549" transform="translate(0 0)" clip-path="url(#clip-path)">
        <path id="路径_128" data-name="路径 128" d="M-20.272,429.495a1.853,1.853,0,0,1,.105.632,1.926,1.926,0,0,1-.58,1.4,1.979,1.979,0,0,1-1.4.58,2,2,0,0,1-1.992-1.992,1.853,1.853,0,0,1,.105-.632H-30.59v6.134a1.646,1.646,0,0,0,1.644,1.644H-15.34a1.646,1.646,0,0,0,1.644-1.644v-6.134h-6.576Zm0,0" transform="translate(30.601 -421.158)" fill="#dbdbdb"/>
        <path id="路径_129" data-name="路径 129" d="M-23.465,119.026l-.116.221a1.113,1.113,0,0,0-.084.422,1.111,1.111,0,0,0,1.117,1.117,1.111,1.111,0,0,0,1.117-1.117.974.974,0,0,0-.084-.422l-.105-.221Zm9.359-3.984A1.646,1.646,0,0,0-15.75,113.4h-3.51v-.632a1.959,1.959,0,0,0-1.95-1.95h-2.666a1.959,1.959,0,0,0-1.95,1.95v.632h-3.531A1.646,1.646,0,0,0-31,115.042v2.98h16.884v-2.98Zm-10.507-2.266a.747.747,0,0,1,.738-.738h2.666a.747.747,0,0,1,.738.738v.632h-4.142Zm0,0" transform="translate(31 -110.689)" fill="#dbdbdb"/>
      </g>
    </g>
  </g>
</svg>
