<svg xmlns="http://www.w3.org/2000/svg" width="18" height="18" viewBox="0 0 18 18">
  <g id="组_693" data-name="组 693" transform="translate(-0.001 -0.001)">
    <path id="路径_295" data-name="路径 295" d="M17.122,19.558a1.327,1.327,0,0,1-.949-.4l-1.967-2a1.3,1.3,0,0,1-.315-1.3l1.376-4.365-.533-.752A1.853,1.853,0,0,1,14.608,8.8a1.782,1.782,0,0,1,1.576-.96h1.875a1.781,1.781,0,0,1,1.576.961,1.852,1.852,0,0,1-.125,1.941l-.5.709,1.486,4.382a1.3,1.3,0,0,1-.34,1.363l-2.118,2a1.328,1.328,0,0,1-.914.362Z" transform="translate(-8.196 -4.608)" fill="#999"/>
    <path id="路径_296" data-name="路径 296" d="M18.4,19.541l-1.8-1.848a.39.39,0,0,1-.1-.376l1.314-4.781-.7-.981a.937.937,0,0,1-.03-.987,1.021,1.021,0,0,1,.863-.475h1.468a1.111,1.111,0,0,1,.914.475.937.937,0,0,1-.016.987l-.713.981,1.489,4.73a.39.39,0,0,1-.113.413L19,19.562A.474.474,0,0,1,18.4,19.541Zm.268-.351" transform="translate(-9.756 -5.933)" fill="#fff"/>
    <path id="路径_297" data-name="路径 297" d="M22.038,37.055" transform="translate(-13.021 -21.916)" fill="#3b455f"/>
    <g id="组_692" data-name="组 692" transform="translate(0.001 0.001)">
      <path id="路径_298" data-name="路径 298" d="M9,1.356A7.645,7.645,0,1,0,16.646,9,7.654,7.654,0,0,0,9,1.356M9,0A9,9,0,1,1,0,9,9,9,0,0,1,9,0ZM9,0" transform="translate(-0.001 -0.001)" fill="#666"/>
    </g>
    <path id="路径_299" data-name="路径 299" d="M23.489,24.554l-.4-1.373a.355.355,0,1,1,.682-.2l.394,1.371a.355.355,0,0,1-.682.2Z" transform="translate(-13.64 -13.432)" fill="#999"/>
  </g>
</svg>
