<svg xmlns="http://www.w3.org/2000/svg" xmlns:xlink="http://www.w3.org/1999/xlink" width="76" height="22" viewBox="0 0 76 22">
  <defs>
    <linearGradient id="linear-gradient" x1="0.5" x2="0.5" y2="1" gradientUnits="objectBoundingBox">
      <stop offset="0" stop-color="#f5073f"/>
      <stop offset="1" stop-color="#ff4b75"/>
    </linearGradient>
  </defs>
  <g id="组_710" data-name="组 710" transform="translate(-289 -160)">
    <path id="矩形_195" data-name="矩形 195" d="M11,0H76a0,0,0,0,1,0,0V22a0,0,0,0,1,0,0H11A11,11,0,0,1,0,11v0A11,11,0,0,1,11,0Z" transform="translate(289 160)" fill="#fc3964"/>
    <circle id="椭圆_47" data-name="椭圆 47" cx="10" cy="10" r="10" transform="translate(290 161)" fill="#fff"/>
    <g id="组_673" data-name="组 673" transform="translate(328.211 197.239)">
      <g id="组_672" data-name="组 672" transform="translate(-34 -32)">
        <path id="路径_258" data-name="路径 258" d="M-30.024-26.778h-2.729A1.248,1.248,0,0,1-34-28.024v-2.729A1.248,1.248,0,0,1-32.753-32h2.729a1.248,1.248,0,0,1,1.247,1.247v2.729a1.248,1.248,0,0,1-1.247,1.247Zm0-1.251v0Zm-.006-2.725-2.723.006.006,2.723,2.719-.006v-2.723Zm6.362,3.976H-26.4a1.248,1.248,0,0,1-1.247-1.247v-2.729A1.248,1.248,0,0,1-26.4-32h2.729a1.248,1.248,0,0,1,1.247,1.247v2.729a1.249,1.249,0,0,1-1.247,1.247Zm0-1.251v0Zm-.006-2.725-2.723.006.006,2.723,2.719-.006v-2.723Zm-6.351,10.276h-2.729A1.248,1.248,0,0,1-34-21.724v-2.729A1.248,1.248,0,0,1-32.753-25.7h2.729a1.248,1.248,0,0,1,1.247,1.247v2.729a1.248,1.248,0,0,1-1.247,1.247Zm0-1.252v0Zm-.006-2.723-2.723.006.006,2.723,2.719-.005v-2.723Zm6.982.006h-.219a.626.626,0,0,1-.626-.626.626.626,0,0,1,.626-.626h.219a.626.626,0,0,1,.626.626.626.626,0,0,1-.626.626Zm-1.949,0h-2.022a.626.626,0,0,1-.626-.626.626.626,0,0,1,.626-.626H-25a.626.626,0,0,1,.626.626.626.626,0,0,1-.626.626Zm1.949,3.97h-.219a.626.626,0,0,1-.626-.626.626.626,0,0,1,.626-.626h.219a.626.626,0,0,1,.626.626.626.626,0,0,1-.626.626Zm-1.949,0h-2.022a.626.626,0,0,1-.626-.626.626.626,0,0,1,.626-.626H-25a.626.626,0,0,1,.626.626.626.626,0,0,1-.626.626Zm-1.8-1.985h-.219a.626.626,0,0,1-.626-.626.626.626,0,0,1,.626-.626h.219a.626.626,0,0,1,.626.626.626.626,0,0,1-.626.626Zm3.751,0H-25.07a.626.626,0,0,1-.626-.626.626.626,0,0,1,.626-.626h2.022a.626.626,0,0,1,.626.626.626.626,0,0,1-.626.626Zm0,0" transform="translate(34 32)" fill="url(#linear-gradient)"/>
      </g>
    </g>
  </g>
</svg>
