<svg xmlns="http://www.w3.org/2000/svg" width="26" height="26" viewBox="0 0 26 26">
  <g id="组_256" data-name="组 256" transform="translate(-144 -728)">
    <path id="路径_87" data-name="路径 87" d="M13,0A13,13,0,1,1,0,13,13,13,0,0,1,13,0Z" transform="translate(144 728)" fill="#dbdbdb"/>
    <path id="路径_89" data-name="路径 89" d="M159.546,281.907l-3.558-3.557,3.555-3.556a1.138,1.138,0,1,0-1.609-1.609l-3.555,3.557-3.558-3.557a1.138,1.138,0,0,0-1.609,1.609l3.557,3.558-3.557,3.558a1.138,1.138,0,0,0,0,1.609,1.141,1.141,0,0,0,1.612,0l3.554-3.555,3.557,3.558a1.141,1.141,0,0,0,1.612,0A1.138,1.138,0,0,0,159.546,281.907Z" transform="translate(2.621 462.649)" fill="#fff"/>
  </g>
</svg>
