<svg xmlns="http://www.w3.org/2000/svg" width="10" height="7.702" viewBox="0 0 10 7.702">
  <g id="组_223" data-name="组 223" transform="translate(7.442 -62.972)">
    <path id="路径_80" data-name="路径 80" d="M333.443,70.4h0V69.138l2.191-2.12a.27.27,0,0,0,0-.39l-2.191-2.12V63.247a.28.28,0,0,1,.284-.275h0a.289.289,0,0,1,.2.081l3.7,3.575a.27.27,0,0,1,0,.39l-3.7,3.575a.292.292,0,0,1-.4,0,.27.27,0,0,1-.083-.194Z" transform="translate(-339.628 0)" fill="#fc3964"/>
    <path id="路径_82" data-name="路径 82" d="M676.887,70.4h0V69.138l2.191-2.12a.27.27,0,0,0,0-.39l-2.191-2.12V63.247a.28.28,0,0,1,.284-.275h0a.289.289,0,0,1,.2.081l3.7,3.575a.27.27,0,0,1,0,.39l-3.7,3.575a.292.292,0,0,1-.4,0,.27.27,0,0,1-.083-.194Z" transform="translate(-678.594 0)" fill="#fc3964"/>
    <path id="路径_83" data-name="路径 83" d="M220.282,754.171" transform="translate(-227.724 -683.781)" fill="#fc3964"/>
  </g>
</svg>
