<svg xmlns="http://www.w3.org/2000/svg" width="12" height="12" viewBox="0 0 12 12">
  <g id="组_274" data-name="组 274" transform="translate(61 -62.69)">
    <path id="路径_91" data-name="路径 91" d="M-61,68.69a6,6,0,0,0,6,6,6,6,0,0,0,6-6,6,6,0,0,0-6-6,6,6,0,0,0-6,6Z" fill="#d5d5d5"/>
    <path id="路径_92" data-name="路径 92" d="M206.022,217.586l-2.609-2.648a.5.5,0,0,1,0-.7.487.487,0,0,1,.693,0l2.956,3a.5.5,0,0,1,0,.7l-2.936,2.979a.487.487,0,0,1-.693,0,.5.5,0,0,1,0-.7Z" transform="translate(-259.828 -148.886)" fill="#fff"/>
    <path id="路径_93" data-name="路径 93" d="M359.961,421.37" transform="translate(-413.914 -352.675)"/>
  </g>
</svg>
