<svg xmlns="http://www.w3.org/2000/svg" width="17.999" height="17.998" viewBox="0 0 17.999 17.998">
  <g id="组_636" data-name="组 636" transform="translate(0.005)">
    <path id="路径_166" data-name="路径 166" d="M28.942,11.681" transform="translate(-17.107 -6.903)" fill="#1467b2"/>
    <g id="组_636-2" data-name="组 636" transform="translate(-0.005 10.148)">
      <path id="路径_167" data-name="路径 167" d="M19.661,31.523h0Z" transform="translate(-11.617 -28.777)" fill="#666"/>
      <path id="路径_168" data-name="路径 168" d="M19.663,31.523h0Z" transform="translate(-11.618 -28.777)" fill="#666"/>
      <path id="路径_169" data-name="路径 169" d="M19.669,31.523h0Z" transform="translate(-11.621 -28.777)" fill="#666"/>
      <path id="路径_170" data-name="路径 170" d="M8.072,24.811v0H8.009v0C3.587,24.825,0,28.035,0,31.991a.638.638,0,0,0,.7.669.694.694,0,0,0,.71-.652c0-3.65,3.417-5.887,6.634-5.892s6.643,2.243,6.643,5.892a.694.694,0,0,0,.71.652.638.638,0,0,0,.7-.669C16.087,28.035,12.495,24.825,8.072,24.811Z" transform="translate(0.005 -24.809)" fill="#666"/>
    </g>
    <path id="路径_171" data-name="路径 171" d="M16.682,3.535a5.726,5.726,0,1,0-1.241,6.241A5.726,5.726,0,0,0,16.682,3.535Zm-5.29,6.613a4.422,4.422,0,1,1,4.422-4.422A4.423,4.423,0,0,1,11.392,10.148Z" transform="translate(-3.351)" fill="#666"/>
    <path id="路径_172" data-name="路径 172" d="M36.806,23.5l-2,3.674a.6.6,0,1,1-1.059-.577l2-3.671a.6.6,0,0,1,1.061.574Z" transform="translate(-19.899 -13.368)" fill="#666"/>
    <path id="路径_173" data-name="路径 173" d="M39.524,15.127H37.889a.548.548,0,1,1,0-1.095h1.632a.548.548,0,0,1,0,1.095Z" transform="translate(-22.063 -8.292)" fill="#999"/>
    <path id="路径_174" data-name="路径 174" d="M38.244,9.035H35.724a.548.548,0,1,1,0-1.095h2.518a.548.548,0,0,1,0,1.095Z" transform="translate(-20.783 -4.692)" fill="#999"/>
  </g>
</svg>
