<svg xmlns="http://www.w3.org/2000/svg" width="355.001" height="90.001" viewBox="0 0 355.001 90.001">
  <g id="组_732" data-name="组 732" transform="translate(-10 -141.999)">
    <g id="组_295" data-name="组 295">
      <g id="组_174" data-name="组 174" transform="translate(10 142)">
        <path id="减去_7" data-name="减去 7" d="M-5400-1725h-347a4,4,0,0,1-4-4v-35a6.009,6.009,0,0,0,6-6,6.008,6.008,0,0,0-6-6v-35a4,4,0,0,1,4-4h347a4,4,0,0,1,4,4v35a6.007,6.007,0,0,0-6,6,6.007,6.007,0,0,0,6,6v35A4,4,0,0,1-5400-1725Zm-116-7a1,1,0,0,0-1,1v4a1,1,0,0,0,1,1,1,1,0,0,0,1-1v-4A1,1,0,0,0-5516-1732Zm0-9a1,1,0,0,0-1,1v4a1,1,0,0,0,1,1,1,1,0,0,0,1-1v-4A1,1,0,0,0-5516-1741Zm0-8a1,1,0,0,0-1,1v4a1,1,0,0,0,1,1,1,1,0,0,0,1-1v-4A1,1,0,0,0-5516-1749Zm0-8a1,1,0,0,0-1,1v4a1,1,0,0,0,1,1,1,1,0,0,0,1-1v-4A1,1,0,0,0-5516-1757Zm0-8a1,1,0,0,0-1,1v4a1,1,0,0,0,1,1,1,1,0,0,0,1-1v-4A1,1,0,0,0-5516-1765Zm0-9a1,1,0,0,0-1,1v4a1,1,0,0,0,1,1,1,1,0,0,0,1-1v-4A1,1,0,0,0-5516-1774Zm0-8a1,1,0,0,0-1,1v4a1,1,0,0,0,1,1,1,1,0,0,0,1-1v-4A1,1,0,0,0-5516-1782Zm0-8a1,1,0,0,0-1,1v4a1,1,0,0,0,1,1,1,1,0,0,0,1-1v-4A1,1,0,0,0-5516-1790Zm0-8a1,1,0,0,0-1,1v4a1,1,0,0,0,1,1,1,1,0,0,0,1-1v-4A1,1,0,0,0-5516-1798Zm0-8a1,1,0,0,0-1,1v4a1,1,0,0,0,1,1,1,1,0,0,0,1-1v-4A1,1,0,0,0-5516-1806Zm0-8a1,1,0,0,0-1,1v4a1,1,0,0,0,1,1,1,1,0,0,0,1-1v-4A1,1,0,0,0-5516-1814Z" transform="translate(5751 1815)" fill="#fff"/>
      </g>
    </g>
    <path id="减去_6" data-name="减去 6" d="M-5624-1583h-116v-1a1,1,0,0,0,1-1v-4a1,1,0,0,0-1-1v-3a1,1,0,0,0,1-1v-4a1,1,0,0,0-1-1v-2a1,1,0,0,0,1-1v-4a1,1,0,0,0-1-1v-2a1,1,0,0,0,1-1v-4a1,1,0,0,0-1-1v-2a1,1,0,0,0,1-1v-4a1,1,0,0,0-1-1v-3a1,1,0,0,0,1-1v-4a1,1,0,0,0-1-1v-2a1,1,0,0,0,1-1v-4a1,1,0,0,0-1-1v-2a1,1,0,0,0,1-1v-4a1,1,0,0,0-1-1v-2a1,1,0,0,0,1-1v-4a1,1,0,0,0-1-1v-2a1,1,0,0,0,1-1v-4a1,1,0,0,0-1-1v-2a1,1,0,0,0,1-1v-4a1,1,0,0,0-1-1v-1h116a4.005,4.005,0,0,1,4,4v35a6.007,6.007,0,0,0-6,6,6.007,6.007,0,0,0,6,6v35A4,4,0,0,1-5624-1583Z" transform="translate(5985 1815)" fill="#fc3964"/>
    <circle id="椭圆_35" data-name="椭圆 35" cx="27" cy="27" r="27" transform="translate(278 160)" fill="#fff" opacity="0.25"/>
    <circle id="椭圆_32" data-name="椭圆 32" cx="24" cy="24" r="24" transform="translate(281 163)" fill="#fff"/>
  </g>
</svg>
