<svg xmlns="http://www.w3.org/2000/svg" width="15.275" height="18" viewBox="0 0 15.275 18">
  <g id="组_666" data-name="组 666" transform="translate(-3.999 0.001)">
    <path id="路径_242" data-name="路径 242" d="M19.274,7.512c0-.565-.649-.542-.649-.542a.607.607,0,0,0-.642.542v8.365a.818.818,0,0,1-.818.818H6.107a.818.818,0,0,1-.818-.818V13.219h0V2.12A.818.818,0,0,1,6.107,1.3H17.167a.818.818,0,0,1,.818.818v1.9a.685.685,0,0,0,.679.539.58.58,0,0,0,.61-.531v-2.4A1.636,1.636,0,0,0,17.638,0h-12A1.636,1.636,0,0,0,4,1.635V13.219H4v2.347A2.27,2.27,0,0,0,6.268,18h11.37a1.636,1.636,0,0,0,1.636-1.636M17.984,4.03" fill="#666"/>
    <path id="路径_243" data-name="路径 243" d="M19.634,9.558h-7.21a.547.547,0,1,1,0-1.093h7.207a.547.547,0,0,1,0,1.093Z" transform="translate(-4.652 -5.002)" fill="#999"/>
    <path id="路径_244" data-name="路径 244" d="M16.261,17.614H12.422a.547.547,0,1,1,0-1.093h3.836a.547.547,0,0,1,0,1.093Z" transform="translate(-4.644 -9.762)" fill="#999"/>
    <path id="路径_245" data-name="路径 245" d="M6.262,34.193H17.987V32.906H6.268a2.266,2.266,0,1,0,0,4.531H17.987v-1.3H6.262a.972.972,0,1,1,0-1.944Z" transform="translate(0 -19.439)" fill="#666"/>
    <path id="路径_246" data-name="路径 246" d="M41.34,18.366" transform="translate(-22.066 -10.854)" fill="#535453"/>
  </g>
</svg>
