<svg xmlns="http://www.w3.org/2000/svg" width="17.228" height="18" viewBox="0 0 17.228 18">
  <g id="组_643" data-name="组 643" transform="translate(-0.944)">
    <path id="路径_184" data-name="路径 184" d="M28.942,11.681" transform="translate(-16.544 -6.902)" fill="#1467b2"/>
    <g id="组_643-2" data-name="组 643" transform="translate(0.944)">
      <path id="路径_185" data-name="路径 185" d="M9.558,0A8.62,8.62,0,0,0,.944,8.614a.719.719,0,0,0,.424.653.706.706,0,0,0,.337.087H4.337a.628.628,0,0,0,.707-.587c.042-.514-.315-.7-.707-.7H2.268A7.543,7.543,0,0,1,9.558,1.3a7.422,7.422,0,0,1,7.325,7.322,7.425,7.425,0,0,1-5.345,7.036A1.717,1.717,0,0,0,10,14.7H8.318a1.517,1.517,0,0,0-1.6,1.592A1.613,1.613,0,0,0,8.318,18H10a1.723,1.723,0,0,0,1.555-1,.471.471,0,0,0,.109-.022A8.621,8.621,0,0,0,9.558,0ZM10,16.9H8.318a.575.575,0,0,1,0-1.142H10a.565.565,0,0,1,.511.571A.583.583,0,0,1,10,16.9Zm0-.12" transform="translate(-0.944)" fill="#666"/>
      <path id="路径_186" data-name="路径 186" d="M17.6,28.349a3.049,3.049,0,0,0,2.178-.9.624.624,0,1,0-.883-.882,1.835,1.835,0,0,1-2.6,0,.624.624,0,1,0-.883.882,3.087,3.087,0,0,0,2.188.9Zm0,0" transform="translate(-9.39 -15.592)" fill="#999"/>
    </g>
  </g>
</svg>
