<svg xmlns="http://www.w3.org/2000/svg" width="14.727" height="18" viewBox="0 0 14.727 18">
  <g id="组_628" data-name="组 628" transform="translate(-3.999 0.001)">
    <path id="路径_152" data-name="路径 152" d="M28.942,11.681" transform="translate(-14.74 -6.903)" fill="#1467b2"/>
    <rect id="SVGID" width="14.638" height="17.999" transform="translate(4.044 -0.001)" fill="none"/>
    <path id="路径_153" data-name="路径 153" d="M13.169,14.8a2.342,2.342,0,0,1,2.46,2.2.549.549,0,0,1-1.1,0,1.269,1.269,0,0,0-1.362-1.1A1.269,1.269,0,0,0,11.807,17a.549.549,0,0,1-1.1,0,2.341,2.341,0,0,1,2.46-2.2Z" transform="translate(-3.969 -8.749)" fill="#999"/>
    <path id="路径_154" data-name="路径 154" d="M19.337,35.1H11.158a.546.546,0,0,1-.485-.27.552.552,0,0,1,0-.557.546.546,0,0,1,.485-.27h8.176a.549.549,0,0,1,0,1.1Z" transform="translate(-3.892 -20.098)" fill="#999"/>
    <path id="路径_155" data-name="路径 155" d="M19.337,28.327H11.158a.546.546,0,0,1-.485-.27.552.552,0,0,1,0-.557.546.546,0,0,1,.485-.27h8.176a.549.549,0,0,1,0,1.1Z" transform="translate(-3.892 -16.093)" fill="#999"/>
    <path id="路径_156" data-name="路径 156" d="M18.726,4.779,14.014,0H5.635A1.636,1.636,0,0,0,4,1.635V16.363A1.636,1.636,0,0,0,5.635,18H17.089a1.636,1.636,0,0,0,1.636-1.636V4.779h0Zm-1.29,0v11.1a.818.818,0,0,1-.818.818H6.107a.818.818,0,0,1-.818-.818V2.12A.818.818,0,0,1,6.107,1.3h7.908V4.589a.191.191,0,0,0,.189.189h3.233Z" fill="#666"/>
    <path id="路径_157" data-name="路径 157" d="M15.805,6.665a1.751,1.751,0,1,0-.38,1.908A1.751,1.751,0,0,0,15.805,6.665ZM14.187,8.126a.792.792,0,1,1,.792-.792A.792.792,0,0,1,14.187,8.126Z" transform="translate(-4.989 -3.294)" fill="#999"/>
  </g>
</svg>
