<svg xmlns="http://www.w3.org/2000/svg" width="29.87" height="28.169" viewBox="0 0 29.87 28.169">
  <g id="组_683" data-name="组 683" transform="translate(-0.58 -19.289)">
    <path id="路径_267" data-name="路径 267" d="M304.652,27.975a5.273,5.273,0,1,0-5.273-5.273,5.269,5.269,0,0,0,5.273,5.273Z" transform="translate(-283.881 1.861)" fill="#ffe177"/>
    <path id="路径_268" data-name="路径 268" d="M223.953,253.976H219.8a7.507,7.507,0,0,0-7.569,7.507,3.045,3.045,0,0,0,3.04,3.04h13.215a3.045,3.045,0,0,0,3.04-3.04,7.586,7.586,0,0,0-7.569-7.507Z" transform="translate(-201.072 -222.899)" fill="#81adff"/>
    <path id="路径_264" data-name="路径 264" d="M106.381,67.189a6.2,6.2,0,1,0-6.2-6.2,6.223,6.223,0,0,0,6.2,6.2Z" transform="translate(-94.634 -35.492)" fill="#ffc700"/>
    <path id="路径_265" data-name="路径 265" d="M14.043,328.68H9.452A8.87,8.87,0,0,0,.58,337.551a3.535,3.535,0,0,0,3.536,3.536H19.378a3.534,3.534,0,0,0,3.536-3.536,8.87,8.87,0,0,0-8.872-8.871Z" transform="translate(0 -295.742)" fill="#6a9eff"/>
    <path id="路径_266" data-name="路径 266" d="M270.741,328.68" transform="translate(-256.698 -295.742)"/>
    <path id="路径_269" data-name="路径 269" d="M447.532,253.976" transform="translate(-424.68 -224.76)"/>
    <path id="路径_270" data-name="路径 270" d="M348.327,354.758a6.431,6.431,0,1,1,6.431-6.431,6.438,6.438,0,0,1-6.431,6.431Z" transform="translate(-324.308 -307.299)" fill="#ffc700"/>
    <path id="路径_271" data-name="路径 271" d="M424.741,418.616H423.1v-.7h1.638a.432.432,0,1,0,0-.863h-1.129l1.438-1.474a.431.431,0,1,0-.618-.6l-1.761,1.806-1.761-1.807a.431.431,0,1,0-.618.6l1.438,1.474H420.6a.432.432,0,0,0,0,.863h1.638v.7H420.6a.432.432,0,0,0,0,.863h1.638v1.189a.432.432,0,0,0,.863,0v-1.188h1.638a.432.432,0,0,0,0-.863Zm0,0" transform="translate(-398.681 -376.612)" fill="#fff"/>
  </g>
</svg>
