<svg xmlns="http://www.w3.org/2000/svg" xmlns:xlink="http://www.w3.org/1999/xlink" width="27.116" height="28" viewBox="0 0 27.116 28">
  <defs>
    <clipPath id="clip-path">
      <rect id="SVGID" width="25.34" height="25.605" fill="none"/>
    </clipPath>
  </defs>
  <g id="组_682" data-name="组 682" transform="translate(29 93.858)">
    <g id="组_681" data-name="组 681" transform="translate(-29 -91.463)">
      <g id="组_680" data-name="组 680" transform="translate(0 0)" clip-path="url(#clip-path)">
        <path id="路径_261" data-name="路径 261" d="M204.728-21.555a4.128,4.128,0,0,0-2.588-1.59l-5.226-.361.589-6.258a1.884,1.884,0,0,0-1.874-2.077h-.971a1.883,1.883,0,0,0-1.636.952L188.664-23.6V-8.155a1.878,1.878,0,0,1-.062.459l12.055.413a3.765,3.765,0,0,0,3.695-3.223l1.162-7.971a4.135,4.135,0,0,0-.786-3.078Zm0,0" transform="translate(-180.22 31.846)" fill="#ffba3b"/>
      </g>
    </g>
    <path id="路径_262" data-name="路径 262" d="M-20.516,129.939v0l0-.005h0l0,0v-.2a1.894,1.894,0,0,0-1.893-1.893h-4.7A1.894,1.894,0,0,0-29,129.732v15.729a1.894,1.894,0,0,0,1.893,1.893h4.7a1.89,1.89,0,0,0,1.831-1.431h0a1.878,1.878,0,0,0,.06-.455V129.942" transform="translate(0 -213.249)" fill="#fe9845"/>
    <path id="路径_263" data-name="路径 263" d="M470.28-90.883a.447.447,0,0,0-.361-.3l-2.3-.335-1.03-2.087a.447.447,0,0,0-.4-.249.447.447,0,0,0-.4.249l-1.03,2.087-2.3.335a.446.446,0,0,0-.361.3.447.447,0,0,0,.113.458L463.87-88.8l-.394,2.294a.447.447,0,0,0,.178.437.447.447,0,0,0,.471.034l2.06-1.083,2.06,1.083a.447.447,0,0,0,.208.051.447.447,0,0,0,.342-.159.447.447,0,0,0,.1-.364L468.5-88.8l1.667-1.625a.447.447,0,0,0,.113-.458Z" transform="translate(-472.186 0)" fill="#fe9845"/>
  </g>
</svg>
