<svg xmlns="http://www.w3.org/2000/svg" width="26.215" height="26.369" viewBox="0 0 26.215 26.369">
  <g id="组_685" data-name="组 685" transform="translate(-1.755)">
    <path id="路径_276" data-name="路径 276" d="M161.25,0a6.339,6.339,0,0,0-6.378,6.378h12.756A6.339,6.339,0,0,0,161.25,0Zm-3.523,5.62a3.524,3.524,0,0,1,7.047,0Z" transform="translate(-146.388)" fill="#fe9845"/>
    <path id="路径_277" data-name="路径 277" d="M24.886,264.544H4.839a3.093,3.093,0,0,1-3.084-3.084V249.124H27.97V261.46a3.093,3.093,0,0,1-3.084,3.084Zm0,0" transform="translate(0 -238.175)" fill="#6a9eff"/>
    <path id="路径_278" data-name="路径 278" d="M24.886,120.762H4.839a3.093,3.093,0,0,1-3.084-3.084v-2.313a3.093,3.093,0,0,1,3.084-3.084H24.886a3.093,3.093,0,0,1,3.084,3.084v2.313a3.093,3.093,0,0,1-3.084,3.084Zm0,0" transform="translate(0 -107.346)" fill="#ffc700"/>
    <path id="路径_279" data-name="路径 279" d="M266.455,237.748a1.547,1.547,0,0,1-1.542-1.542v-3.084a1.542,1.542,0,1,1,3.084,0v3.084a1.547,1.547,0,0,1-1.542,1.542Zm0,0" transform="translate(-251.593 -221.402)" fill="#fff"/>
  </g>
</svg>
