<svg xmlns="http://www.w3.org/2000/svg" width="27.149" height="31.212" viewBox="0 0 27.149 31.212">
  <g id="组_687" data-name="组 687" transform="translate(-49.615)">
    <path id="路径_280" data-name="路径 280" d="M412.632,482.131a.117.117,0,0,0,.117-.117.108.108,0,0,0-.117-.117.117.117,0,0,0,0,.233Z" transform="translate(-344.023 -456.83)"/>
    <path id="路径_281" data-name="路径 281" d="M414.755,486.388" transform="translate(-346.146 -461.086)"/>
    <path id="路径_282" data-name="路径 282" d="M346.165,368.626a6.018,6.018,0,1,0,6.018,6.018,6.018,6.018,0,0,0-6.018-6.018Z" transform="translate(-275.419 -349.45)" fill="#fe9845"/>
    <path id="路径_283" data-name="路径 283" d="M63.284,63.091a7.462,7.462,0,0,1,7.462-7.462c.246,0,.488.012.728.035V42.65A2.681,2.681,0,0,0,68.8,39.977H52.288a2.68,2.68,0,0,0-2.673,2.673V62.4a2.681,2.681,0,0,0,2.673,2.673H63.552A7.471,7.471,0,0,1,63.284,63.091Z" transform="translate(0 -37.897)" fill="#ffc700"/>
    <path id="路径_284" data-name="路径 284" d="M501.639,554.658" transform="translate(-428.51 -525.805)"/>
    <path id="路径_285" data-name="路径 285" d="M393.093,420.582l-1.782,1.3.648,2.167a.363.363,0,0,1-.081.284.45.45,0,0,1-.263.162h-.061a.382.382,0,0,1-.162-.04l-1.823-1.317-1.823,1.317a.593.593,0,0,1-.182.04.355.355,0,0,1-.3-.122.514.514,0,0,1-.081-.324l.648-2.167-1.782-1.3a.427.427,0,0,1-.1-.263.4.4,0,0,1,.122-.284.483.483,0,0,1,.223-.121l2.228-.081.729-2.066a.392.392,0,0,1,.344-.2.587.587,0,0,1,.182.041.476.476,0,0,1,.182.162l.729,2.066,2.228.081a.407.407,0,0,1,.3.263.666.666,0,0,1-.121.405Z" transform="translate(-318.833 -395.842)" fill="#fff"/>
    <g id="组_686" data-name="组 686" transform="translate(53.123 7.338)">
      <path id="路径_286" data-name="路径 286" d="M117.865,141.066h13.223a.81.81,0,1,1,0,1.619H117.865a.81.81,0,1,1,0-1.619Z" transform="translate(-117.055 -141.066)" fill="#fff"/>
      <path id="路径_287" data-name="路径 287" d="M117.055,237.068a.736.736,0,0,1,.734-.734h10.734a.736.736,0,0,1,.734.734v.151a.736.736,0,0,1-.734.734H117.789a.736.736,0,0,1-.734-.734Z" transform="translate(-117.055 -231.378)" fill="#fff"/>
      <path id="路径_288" data-name="路径 288" d="M124.885,332.454a.77.77,0,0,1-.767.767h-6.3a.769.769,0,0,1-.767-.767v-.084a.769.769,0,0,1,.767-.767h6.3a.77.77,0,0,1,.767.767Z" transform="translate(-117.055 -321.69)" fill="#fff"/>
    </g>
    <path id="路径_289" data-name="路径 289" d="M163.7,3.941h5.871a2.079,2.079,0,0,0,2.172-1.971A2.079,2.079,0,0,0,169.575,0H163.7a2.079,2.079,0,0,0-2.172,1.971A2.079,2.079,0,0,0,163.7,3.941Zm0,0" transform="translate(-106.095 0)" fill="#fe9845"/>
  </g>
</svg>
