<svg xmlns="http://www.w3.org/2000/svg" width="15.75" height="18" viewBox="0 0 15.75 18">
  <g id="组_642" data-name="组 642" transform="translate(-2.75 -0.002)">
    <path id="路径_180" data-name="路径 180" d="M28.942,11.681" transform="translate(-15.477 -6.901)" fill="#1467b2"/>
    <path id="路径_181" data-name="路径 181" d="M17.289,0H3.961A1.121,1.121,0,0,0,2.75,1V17a1.121,1.121,0,0,0,1.211,1H7.6a.721.721,0,0,0,.668-.445c.007-.014.025-.064.029-.076A2.386,2.386,0,0,1,10.625,16a2.379,2.379,0,0,1,2.339,1.5l.006.019a.684.684,0,0,0,.684.478h3.635A1.121,1.121,0,0,0,18.5,17V1A1.121,1.121,0,0,0,17.289,0ZM17.22,16.218a.55.55,0,0,1-.6.481H14.013a3.635,3.635,0,0,0-3.388-1.924A3.634,3.634,0,0,0,7.237,16.7H4.63a.55.55,0,0,1-.6-.481V1.785a.55.55,0,0,1,.6-.481H16.62a.55.55,0,0,1,.6.481Z" transform="translate(0)" fill="#666"/>
    <path id="路径_182" data-name="路径 182" d="M20.552,17.523H18.685v1.334a.267.267,0,0,1-.267.267h-.534a.267.267,0,0,1-.266-.267V17.523H15.75a.267.267,0,0,1-.266-.267v-.533a.267.267,0,0,1,.266-.267h1.867V15.389H15.75a.267.267,0,0,1-.266-.267v-.533a.267.267,0,0,1,.266-.267h1.47l-1.643-1.8a.28.28,0,0,1,0-.371l.339-.372a.226.226,0,0,1,.34,0l1.88,2.057,1.9-2.081a.227.227,0,0,1,.342,0l.342.374a.283.283,0,0,1,0,.375l-1.66,1.815h1.487a.267.267,0,0,1,.266.267v.533a.267.267,0,0,1-.266.267H18.685v1.067h1.867a.267.267,0,0,1,.266.267v.533a.267.267,0,0,1-.266.267Z" transform="translate(-7.526 -6.903)" fill="#999"/>
  </g>
</svg>
