<svg xmlns="http://www.w3.org/2000/svg" width="17.997" height="17.997" viewBox="0 0 17.997 17.997">
  <g id="组_655" data-name="组 655" transform="translate(0 0)">
    <path id="路径_227" data-name="路径 227" d="M20.587,3.5A3.332,3.332,0,0,0,19.081.484a3.052,3.052,0,0,0-3.3,0,3.215,3.215,0,0,0-1.506,2.941V3.5l.215,1.578a2.9,2.9,0,0,0,2.941,2.583,2.946,2.946,0,0,0,2.941-2.583v.072Zm-1.144-.313-.2,1.781a1.751,1.751,0,0,1-1.812,1.442,1.829,1.829,0,0,1-1.812-1.442l-.2-1.781a1.416,1.416,0,0,1,.5-1.358,2.216,2.216,0,0,1,3.019,0A1.416,1.416,0,0,1,19.444,3.184Z" transform="translate(-8.432)" fill="#666"/>
    <path id="路径_228" data-name="路径 228" d="M22.913,3.656" transform="translate(-13.541 -2.161)" fill="#333"/>
    <path id="路径_229" data-name="路径 229" d="M11.289,12.675h4.6a.818.818,0,0,1,.818.818V15.1h0v7.5a.818.818,0,0,1-.818.818H2.107a.818.818,0,0,1-.818-.818V19.939h0V13.493a.818.818,0,0,1,.818-.818H6.96l-.28-1.3H1.636A1.636,1.636,0,0,0,0,13.008v6.93H0v3.143a1.636,1.636,0,0,0,1.636,1.636H16.361A1.636,1.636,0,0,0,18,23.082V15.1h0V13.008a1.636,1.636,0,0,0-1.636-1.636H11.289Z" transform="translate(0 -6.721)" fill="#666"/>
    <g id="组_660" data-name="组 660" transform="translate(2.558 8.225)">
      <g id="组_659" data-name="组 659" transform="translate(0 2.334)">
        <g id="组_658" data-name="组 658" transform="translate(0 3.013)">
          <path id="路径_230" data-name="路径 230" d="M6.825,33.182h4.42a.57.57,0,0,1,0,1.14H6.825a.57.57,0,0,1,0-1.14Z" transform="translate(-6.255 -33.182)" fill="#999"/>
        </g>
        <path id="路径_231" data-name="路径 231" d="M6.825,25.816h5.97a.57.57,0,0,1,0,1.14H6.825a.57.57,0,1,1,0-1.14Z" transform="translate(-6.254 -25.816)" fill="#999"/>
      </g>
      <path id="路径_232" data-name="路径 232" d="M27.782,29.326a2.336,2.336,0,0,1,2.453,2.19.548.548,0,0,1-1.095,0,1.39,1.39,0,0,0-2.716,0,.547.547,0,0,1-1.095,0,2.334,2.334,0,0,1,2.453-2.19Z" transform="translate(-17.527 -25.556)" fill="#999"/>
      <path id="路径_233" data-name="路径 233" d="M30.416,21.188a1.746,1.746,0,1,0-.379,1.9A1.746,1.746,0,0,0,30.416,21.188ZM28.8,22.645a.789.789,0,1,1,.789-.789A.789.789,0,0,1,28.8,22.645Z" transform="translate(-18.548 -20.11)" fill="#999"/>
    </g>
  </g>
</svg>
