<svg xmlns="http://www.w3.org/2000/svg" xmlns:xlink="http://www.w3.org/1999/xlink" width="15" height="16" viewBox="0 0 15 16">
  <defs>
    <clipPath id="clip-path">
      <rect id="SVGID" width="15" height="16" fill="#aa762a"/>
    </clipPath>
  </defs>
  <g id="组_708" data-name="组 708" transform="translate(13 31)">
    <g id="组_669" data-name="组 669" transform="translate(-13 -31)">
      <g id="组_668" data-name="组 668" transform="translate(0 0)" clip-path="url(#clip-path)">
        <path id="路径_254" data-name="路径 254" d="M-8.536-14.969H-11.41a1.6,1.6,0,0,1-1.59-1.6V-29.349a1.6,1.6,0,0,1,1.59-1.6H-1.092A1.6,1.6,0,0,1,.5-29.349v3.725a.616.616,0,0,1-.614.617.616.616,0,0,1-.614-.617v-3.725a.366.366,0,0,0-.361-.362H-11.41a.366.366,0,0,0-.361.362v12.783a.366.366,0,0,0,.361.362h2.875a.616.616,0,0,1,.614.617.616.616,0,0,1-.614.617Zm0,0" transform="translate(13 30.946)" fill="#aa762a"/>
        <path id="路径_255" data-name="路径 255" d="M99.672,100.082H93.407a.617.617,0,0,1,0-1.234h6.264a.617.617,0,0,1,0,1.234Zm-.845,3.022H93.412a.617.617,0,0,1,0-1.234h5.415a.617.617,0,0,1,0,1.234Zm-1.766,3.085H93.431a.617.617,0,0,1,0-1.234H97.06a.617.617,0,0,1,0,1.234Zm-.562,5.416-.061-2.827a.967.967,0,0,1,.249-.9l5.053-5.7a.834.834,0,0,1,.544-.279.807.807,0,0,1,.615.2l2.083,1.863a.829.829,0,0,1,.057,1.164l-1.269,1.444a.613.613,0,0,1-.867.054.619.619,0,0,1-.054-.871l1.007-1.147-1.464-1.31-4.731,5.332c0,.03,0,.059.005.089l.032,1.5L99,110.074q.032-.032.062-.066l0,0,2.593-2.861a.613.613,0,0,1,.868-.041.619.619,0,0,1,.041.872l-2.591,2.859a2.4,2.4,0,0,1-.265.258.82.82,0,0,1-.625.217Zm-.04-2.771h0Zm0,0" transform="translate(-90.254 -95.718)" fill="#aa762a"/>
      </g>
    </g>
    <path id="路径_256" data-name="路径 256" d="M424.761,298.587a.619.619,0,0,1-.446-.189l-1.918-1.978a.621.621,0,0,1,.891-.864l1.918,1.978a.621.621,0,0,1-.446,1.053Zm0,0" transform="translate(-424.824 -318.513)" fill="#aa762a"/>
  </g>
</svg>
