<svg xmlns="http://www.w3.org/2000/svg" width="18" height="18" viewBox="0 0 18 18">
  <g id="组_651" data-name="组 651" transform="translate(0 -0.028)">
    <path id="路径_203" data-name="路径 203" d="M28.942,11.681" transform="translate(-17.102 -6.883)" fill="#1467b2"/>
    <path id="路径_204" data-name="路径 204" d="M1.307,5.116V2.975a1.64,1.64,0,0,1,1.64-1.64H4.87s.888.067.888-.653S4.87.03,4.87.03H2.46A2.46,2.46,0,0,0,0,2.49V5.116a.654.654,0,1,0,1.307,0Z" transform="translate(0 0)" fill="#666"/>
    <path id="路径_205" data-name="路径 205" d="M30.675,1.34h2.141a1.64,1.64,0,0,1,1.64,1.64V4.9s-.067.888.653.888.652-.888.652-.888V2.494A2.461,2.461,0,0,0,33.3.033H30.675a.654.654,0,1,0,0,1.307Z" transform="translate(-17.763 -0.003)" fill="#666"/>
    <path id="路径_206" data-name="路径 206" d="M34.463,30.675v2.141a1.64,1.64,0,0,1-1.64,1.64H30.9s-.888-.067-.888.653.888.652.888.652h2.41a2.46,2.46,0,0,0,2.46-2.46V30.675a.654.654,0,1,0-1.307,0Z" transform="translate(-17.77 -17.735)" fill="#666"/>
    <path id="路径_207" data-name="路径 207" d="M5.088,34.463H2.947a1.64,1.64,0,0,1-1.64-1.64V30.9s.067-.888-.653-.888S0,30.9,0,30.9v2.41a2.46,2.46,0,0,0,2.46,2.46H5.088a.654.654,0,1,0,0-1.307Z" transform="translate(0 -17.742)" fill="#666"/>
    <g id="组_650" data-name="组 650" transform="translate(4.444 4.605)">
      <g id="组_649" data-name="组 649">
        <path id="路径_208" data-name="路径 208" d="M17.833,16.411A2.565,2.565,0,1,1,20.4,13.846a2.514,2.514,0,0,1-2.565,2.565Zm0-3.965a1.527,1.527,0,0,0-1.516,1.4,1.527,1.527,0,0,0,1.516,1.4,1.347,1.347,0,0,0,1.4-1.4,1.418,1.418,0,0,0-1.4-1.4Zm0,0" transform="translate(-13.489 -11.281)" fill="#999"/>
        <path id="路径_209" data-name="路径 209" d="M16.691,23.052a4.118,4.118,0,0,0-1.4-.242,2.9,2.9,0,0,0-3.148,2.565.64.64,0,0,1-.7.466c-.35-.117-.583-.35-.466-.7a4.276,4.276,0,0,1,4.314-3.5,4.813,4.813,0,0,1,2.221.51s.415.254.025.782C17.292,23.266,16.762,23.078,16.691,23.052Z" transform="translate(-10.945 -17.378)" fill="#999"/>
      </g>
      <path id="路径_210" data-name="路径 210" d="M24.94,26.764l0-.006,0-.01v0l0-.012v-.006s0-.008,0-.011V26.7a.055.055,0,0,1,0-.009h0a.026.026,0,0,1,0-.01.074.074,0,0,1,0-.017c0-.006,0-.012,0-.018v-.017a.027.027,0,0,1,0-.01v-.007a.052.052,0,0,1,0-.011v-.006l0-.012v0l0-.01,0-.006a.059.059,0,0,1,0-.01l0-.007,0-.009,0-.008,0-.007a.03.03,0,0,1,0-.009l0-.006a.031.031,0,0,1,0-.01l0,0,.006-.01,0,0s0-.007.006-.01l0,0L25,26.45l0-.005.006-.007s0,0,.006-.007l.005-.006.012-.013.853-.829a.371.371,0,0,1,.515,0,.346.346,0,0,1,0,.5l-.231.225h2.5a.355.355,0,1,1,0,.709H25.236l-.012,0h-.006l-.012,0L25.2,27l-.01,0-.007,0-.009,0-.007,0-.009,0-.007,0-.008,0-.009,0-.007,0-.009,0-.006,0-.009-.005-.006,0-.009-.007-.005,0-.009-.007-.006,0-.008-.006-.007-.006-.007,0-.013-.012-.012-.013,0-.006a.053.053,0,0,1-.007-.007L25,26.878l0,0-.007-.01,0,0s0-.007-.006-.01l0,0-.006-.009,0-.006,0-.009a.019.019,0,0,1,0-.006s0-.006,0-.009l0-.007,0-.008,0-.009,0-.007a.04.04,0,0,1,0-.01Z" transform="translate(-19.171 -19.634)" fill="#999"/>
      <path id="路径_211" data-name="路径 211" d="M29.081,31.158v.018a.045.045,0,0,1,0,.01v.007a.056.056,0,0,1,0,.012v.006l0,.011a.011.011,0,0,1,0,.005l0,.01,0,.006,0,.009,0,.007,0,.009,0,.008a.032.032,0,0,1,0,.008.022.022,0,0,1,0,.009s0,0,0,.006a.041.041,0,0,1,0,.01l0,0-.006.009,0,.005-.006.009,0,0a.056.056,0,0,1-.007.01l0,0a.037.037,0,0,1-.007.008l-.007.008,0,.006-.013.013-.853.829a.37.37,0,0,1-.514,0,.346.346,0,0,1,0-.5l.231-.225h-2.5a.354.354,0,1,1,0-.708h3.434l.012,0h.007l.012,0,.006,0,.011,0,.007,0,.009,0,.007,0,.009,0,.008,0,.007,0a.018.018,0,0,1,.009,0l.006,0,.01,0,.005,0,.01.005.005,0,.01.006.005,0,.01.007,0,0,.008.007.007.006.006,0,.014.012.012.013.005.006.006.007.006.008,0,0,.007.01,0,0s0,.006.006.009l0,.005.005.009,0,.005a.031.031,0,0,0,0,.009.034.034,0,0,1,0,.007l0,.008,0,.008,0,.008,0,.009,0,.006a.028.028,0,0,1,0,.01l0,.006,0,.01a.01.01,0,0,0,0,0l0,.012v.006s0,.008,0,.012V31.1s0,.007,0,.01a.02.02,0,0,1,0,.009v.009a.074.074,0,0,1,0,.017c0,.006,0,.011,0,.017Z" transform="translate(-19.198 -22.757)" fill="#999"/>
    </g>
  </g>
</svg>
