<svg xmlns="http://www.w3.org/2000/svg" width="18.758" height="18" viewBox="0 0 18.758 18">
  <g id="组_708" data-name="组 708" transform="translate(-52.642)">
    <path id="路径_212" data-name="路径 212" d="M71.32,6.746A1.626,1.626,0,0,0,70.007,5.64l-4.519-.65L63.467.892a1.639,1.639,0,0,0-2.918,0l-2.008,4.09-4.522.659a1.639,1.639,0,0,0-.9,2.773l3.27,3.172-.773,4.5a1.626,1.626,0,0,0,2.36,1.724l4.032-2.117,4.043,2.126A1.639,1.639,0,0,0,68.412,16.1l-.781-4.5,3.278-3.191A1.625,1.625,0,0,0,71.32,6.746Zm-1.472.92-2.972,2.89a1.783,1.783,0,0,0-.508,1.568l.725,4.071a.409.409,0,0,1-.593.433L62.837,14.7a1.756,1.756,0,0,0-1.648,0L57.542,16.64a.409.409,0,0,1-.595-.431l.708-4.085a1.784,1.784,0,0,0-.508-1.568l-2.969-2.87a.409.409,0,0,1,.226-.7L58.492,6.4a1.785,1.785,0,0,0,1.332-.97l1.809-3.713a.409.409,0,0,1,.734,0L64.2,5.431a1.785,1.785,0,0,0,1.336.961l4.082.576A.409.409,0,0,1,69.848,7.666Z" fill="#666"/>
    <path id="路径_213" data-name="路径 213" d="M78.82,17.321l-1.01-.148-.438-.887a.614.614,0,0,0-.751-.323.591.591,0,0,0-.324.816l.59,1.2a.589.589,0,0,0,.445.324l1.318.192a.586.586,0,0,0,.085,0V18.5a.592.592,0,1,0,.084-1.181Z" transform="translate(-13.944 -9.413)" fill="#999"/>
  </g>
</svg>
