<svg xmlns="http://www.w3.org/2000/svg" xmlns:xlink="http://www.w3.org/1999/xlink" width="24.956" height="25" viewBox="0 0 24.956 25">
  <defs>
    <clipPath id="clip-path">
      <rect id="SVGID" width="24.956" height="25" fill="#999"/>
    </clipPath>
  </defs>
  <g id="组_166" data-name="组 166" transform="translate(20 20)">
    <g id="组_165" data-name="组 165" transform="translate(-20 -20)">
      <g id="组_164" data-name="组 164" transform="translate(0)" clip-path="url(#clip-path)">
        <path id="路径_59" data-name="路径 59" d="M-16.12,3h-1a1,1,0,0,1-1-1V-17a1,1,0,0,1,1-1H-.62a1,1,0,0,1,1,1v1a1,1,0,0,0,1,1,1,1,0,0,0,1-1v-1a3.009,3.009,0,0,0-3-3h-16.5a3.009,3.009,0,0,0-3,3V2a3.009,3.009,0,0,0,3,3h1a1,1,0,0,0,1-1,1,1,0,0,0-1-1Zm0,0" transform="translate(20.115 20)" fill="#999"/>
        <path id="路径_60" data-name="路径 60" d="M173.178,117.719a5.5,5.5,0,1,0-7.056,0,9.009,9.009,0,0,0-5.4,7.144,1,1,0,1,0,1.984.256,7,7,0,0,1,13.887,0,1,1,0,1,0,1.984-.256,9.008,9.008,0,0,0-5.4-7.144ZM166.15,113.5a3.5,3.5,0,1,1,3.5,3.5,3.5,3.5,0,0,1-3.5-3.5Zm0,0" transform="translate(-153.655 -103)" fill="#999"/>
      </g>
    </g>
    <path id="路径_61" data-name="路径 61" d="M85.778,110h-2.5a1,1,0,1,1,0-2h2.5a1,1,0,1,1,0,2Zm0,4.5h-2.5a1,1,0,1,1,0-2h2.5a1,1,0,1,1,0,2Zm0,0" transform="translate(-98.283 -123)" fill="#999"/>
  </g>
</svg>
