<?xml version="1.0" encoding="utf-8"?>
<!-- Generator: Adobe Illustrator 23.0.1, SVG Export Plug-In . SVG Version: 6.00 Build 0)  -->
<svg version="1.1" id="图层_1" xmlns="http://www.w3.org/2000/svg" xmlns:xlink="http://www.w3.org/1999/xlink" x="0px" y="0px"
	 viewBox="0 0 34 34" style="enable-background:new 0 0 34 34;" xml:space="preserve">
<style type="text/css">
	.st0{fill:#FFF5F8;}
	.st1{clip-path:url(#SVGID_1_);}
	.st2{fill:#FC3964;}
</style>
<circle id="椭圆_22" class="st0" cx="17" cy="17" r="17"/>
<g id="组_166" transform="translate(0)">
	<g id="组_165" transform="translate(0)">
		<g>
			<defs>
				<rect id="SVGID_3_" x="8.8" y="8.7" width="18" height="18"/>
			</defs>
			<clipPath id="SVGID_1_">
				<use xlink:href="#SVGID_3_"  style="overflow:visible;"/>
			</clipPath>
			<g id="组_164" transform="translate(0)" class="st1">
				<path id="路径_59" class="st2" d="M11.7,25.2h-0.7c-0.4,0-0.7-0.3-0.7-0.7V10.8c0-0.4,0.3-0.7,0.7-0.7h11.9
					c0.4,0,0.7,0.3,0.7,0.7v0.7c0,0.4,0.3,0.7,0.7,0.7c0,0,0,0,0,0c0.4,0,0.7-0.3,0.7-0.7c0,0,0,0,0,0v-0.7c0-1.2-1-2.2-2.2-2.2
					H10.9c-1.2,0-2.2,1-2.2,2.2v13.7c0,1.2,1,2.2,2.2,2.2h0.7c0.4,0,0.7-0.3,0.7-0.7c0,0,0,0,0,0C12.4,25.5,12.1,25.2,11.7,25.2
					C11.7,25.2,11.7,25.2,11.7,25.2z"/>
				<path id="路径_60" class="st2" d="M22.9,19.3c1.7-1.4,1.9-3.9,0.5-5.6c-1.4-1.7-3.9-1.9-5.6-0.5c-1.7,1.4-1.9,3.9-0.5,5.6
					c0.2,0.2,0.3,0.3,0.5,0.5c-2.1,0.9-3.6,2.9-3.9,5.1c-0.1,0.4,0.2,0.8,0.6,0.8c0.4,0.1,0.8-0.2,0.8-0.6c0,0,0,0,0-0.1
					c0.4-2.8,2.9-4.7,5.7-4.4c2.3,0.3,4.1,2.1,4.4,4.4c0,0.4,0.4,0.7,0.8,0.7s0.7-0.4,0.7-0.8c0,0,0,0,0-0.1
					C26.5,22.1,25,20.2,22.9,19.3z M17.8,16.2c0-1.4,1.1-2.5,2.5-2.5s2.5,1.1,2.5,2.5c0,1.4-1.1,2.5-2.5,2.5c0,0,0,0,0,0
					C18.9,18.7,17.8,17.6,17.8,16.2z"/>
			</g>
		</g>
	</g>
	<path id="路径_61" class="st2" d="M14.2,13.7h-1.8c-0.4,0-0.7-0.3-0.7-0.7s0.3-0.7,0.7-0.7h1.8c0.4,0,0.7,0.3,0.7,0.7
		S14.6,13.7,14.2,13.7z M14.2,17h-1.8c-0.4,0-0.7-0.3-0.7-0.7s0.3-0.7,0.7-0.7h1.8c0.4,0,0.7,0.3,0.7,0.7S14.6,17,14.2,17z"/>
</g>
</svg>
