<svg xmlns="http://www.w3.org/2000/svg" width="15" height="12" viewBox="0 0 15 12">
  <g id="组_876" data-name="组 876" transform="translate(-59 12)">
    <path id="路径_336" data-name="路径 336" d="M69.781-12C68.49-12,67.29-10.776,66.5-9.858,65.711-10.776,64.511-12,63.219-12A4.1,4.1,0,0,0,59-8.031a4.845,4.845,0,0,0,1.223,2.958c1.584,2.138,5.566,4.8,5.735,4.91A.98.98,0,0,0,66.5,0a.978.978,0,0,0,.542-.162c.169-.112,4.152-2.773,5.735-4.91A4.843,4.843,0,0,0,74-8.031,4.1,4.1,0,0,0,69.781-12Zm0,0" transform="translate(0 0)" fill="#fc3964"/>
  </g>
</svg>
