<svg xmlns="http://www.w3.org/2000/svg" width="17.194" height="18" viewBox="0 0 17.194 18">
  <g id="组_653" data-name="组 653" transform="translate(-1.088 0.001)">
    <g id="组_653-2" data-name="组 653" transform="translate(6.787 3.174)">
      <path id="路径_214" data-name="路径 214" d="M18.756,7.887a.384.384,0,0,0-.271-.113h-3.07a.384.384,0,0,0-.384.384v3.07a.383.383,0,0,0,.384.384h3.07a.383.383,0,0,0,.384-.384V8.158A.384.384,0,0,0,18.756,7.887Zm-1.167,2.446H16.31V9.053h1.279Z" transform="translate(-15.031 -7.774)" fill="#999"/>
      <path id="路径_215" data-name="路径 215" d="M15.671,20.269h6.4a.64.64,0,1,1,0,1.279h-6.4a.64.64,0,0,1,0-1.279Z" transform="translate(-15.031 -15.153)" fill="#999"/>
      <path id="路径_216" data-name="路径 216" d="M15.671,26.516h6.4a.64.64,0,1,1,0,1.279h-6.4a.64.64,0,0,1,0-1.279Z" transform="translate(-15.031 -18.842)" fill="#999"/>
      <path id="路径_217" data-name="路径 217" d="M15.67,32.764h6.4a.64.64,0,1,1,0,1.279h-6.4a.64.64,0,1,1,0-1.279Z" transform="translate(-15.031 -22.531)" fill="#999"/>
    </g>
    <path id="路径_218" data-name="路径 218" d="M21.842,4.779h0V1.635A1.636,1.636,0,0,0,20.206,0H8.753A1.636,1.636,0,0,0,7.117,1.635V13.219h0v3.143A1.636,1.636,0,0,0,8.753,18H20.206a1.636,1.636,0,0,0,1.636-1.636V4.779ZM11.83,16.7H9.225a.818.818,0,0,1-.818-.818V13.219h0V2.12A.818.818,0,0,1,9.225,1.3h10.51a.818.818,0,0,1,.818.818V4.779h0v11.1a.818.818,0,0,1-.818.818Z" transform="translate(-3.56)" fill="#666"/>
    <path id="路径_219" data-name="路径 219" d="M4.254,17.33H3.2a.819.819,0,0,1-.819-.818V13.854h0V5.62A.818.818,0,0,1,3.2,4.8H4.262V3.5H2.726A1.637,1.637,0,0,0,1.088,5.135v8.719h0V17a1.637,1.637,0,0,0,1.638,1.636H4.254v-1.3" transform="translate(0 -2.067)" fill="#666"/>
  </g>
</svg>
